<svg xmlns="http://www.w3.org/2000/svg" viewBox="0 0 168.84 44.67"><defs><style>.cls-1{fill:#4d8cca;}.cls-2{fill:#fff;}.cls-3{fill:#00a984;}.cls-4{fill:#aedded;}</style></defs><g id="Capa_2" data-name="Capa 2"><g id="Capa_1-2" data-name="Capa 1"><path class="cls-1" d="M0,23.44,18.63,9.29,21.28,11,29.2,4.61,43.66,15.67A22.34,22.34,0,0,0,0,22.33C0,22.71,0,23.07,0,23.44Z"/><path class="cls-2" d="M43.66,15.67,29.2,4.61,21.28,11,18.63,9.29,0,23.44a.86.86,0,0,0,0,.16l1.48.51L7,26l6.52-3.64,4.5-2.51,2.56,1.49,1.71,1,3.61-1.76,8.32-4.06,9.41-.78Z"/><path class="cls-3" d="M44.23,17.92a20.67,20.67,0,0,0-.56-2.19l-9.41.78-8.32,4.06-3.61,1.76-1.71-1-2.56-1.49-4.5,2.51L7,26,1.52,24.11,0,23.6c0,.24,0,.48,0,.71A22.28,22.28,0,0,0,4.33,35.55l10,1.56L21.55,33l11-.58,5.39-8,.1-.15L44.54,20C44.47,19.27,44.36,18.59,44.23,17.92Z"/><path class="cls-4" d="M44.54,20,38,24.29l-.1.15-5.39,8-11,.58-7.23,4.12-10-1.56A22.33,22.33,0,0,0,44.61,23.91c0-.52.06-1.05.06-1.58A23.21,23.21,0,0,0,44.54,20Z"/><path class="cls-2" d="M54.24,32V13.26h3.89V32Z"/><path class="cls-2" d="M76.79,32,68.68,21.58c-.71-.91-1.22-1.65-1.79-2.47h-.06c.06.62.06,1.76.06,2.61V32H63V13.26H67l7.83,10c.73.94,1.25,1.67,1.76,2.44h0c0-.88,0-2.1,0-2.89V13.26h3.85V32Z"/><path class="cls-2" d="M97.44,32l-1.81-4.57H89.27L87.54,32H83.71L91,13.18h3L101.61,32ZM93.16,20.64a19.83,19.83,0,0,1-.68-2.3h0a14.25,14.25,0,0,1-.68,2.24l-1.39,3.69h4.06Z"/><path class="cls-2" d="M104.93,32V13.26h3.89V32Z"/><path class="cls-2" d="M122.4,32.24c-5.93,0-9.47-4.2-9.47-9.44,0-5.45,4.23-9.73,10.61-9.73a16.44,16.44,0,0,1,5.62.93l-.06,3.52A11,11,0,0,0,124,16.21c-5,0-6.86,3-6.86,6.3,0,3.61,2.35,6.61,6.24,6.61a7.63,7.63,0,0,0,2.75-.45V22.4H130v8A16.12,16.12,0,0,1,122.4,32.24Z"/><path class="cls-2" d="M134.63,32V13.26h10.84l-1,3.18h-5.92v4.37h5.95V24h-5.95v4.76h6.92V32Z"/><path class="cls-2" d="M165,32V21.63c0-.68,0-1.36.06-2H165a16.51,16.51,0,0,1-1.16,2l-3.46,5.3h-1.79l-3.86-5.45a12.35,12.35,0,0,1-1.19-1.81h-.05c0,.71,0,1.36,0,1.9V32h-3.85V13.26h3.57l4.91,7a24.4,24.4,0,0,1,1.36,2.1h0a18.37,18.37,0,0,1,1.27-2.21l4.49-6.9h3.57V32Z"/></g></g></svg>