<svg xmlns="http://www.w3.org/2000/svg" viewBox="0 0 2279.42 537.04"><defs><style>.cls-1{fill:#fff;fill-rule:evenodd;}</style></defs><g id="Capa_2" data-name="Capa 2"><g id="Capa_1-2" data-name="Capa 1"><path class="cls-1" d="M316.13,39.64,310.3,77l-4.91,26.13-4.49,27.53-14-2.75-8.61-1.7,1.37-7.7.94-6.29.9-8.15c-4.59-20.44-15-34.59-31.5-42.76-12.92-6.28-30.75-9.49-53.65-9.49-18.93,0-37.37,4.59-55.35,13.52a135,135,0,0,0-43.67,34.3A145.32,145.32,0,0,0,69.06,151c-6.16,19.55-9.23,40.92-9.23,64.43q0,50,30.28,86.4,31.8,38.73,79.18,38.75a115.73,115.73,0,0,0,21.83-2,119.51,119.51,0,0,0,21.52-6.45q41.3-18.94,60.27-70c2.46-.77,4.92-1.57,7.39-2.18a11.23,11.23,0,0,1,7.08.47,16.37,16.37,0,0,1,7.68,6.77l-19.82,75.65H255.85c-17.22,6.61-32.42,11.39-45.79,14.14-13.24,2.94-28.78,4.3-46.14,4.3q-69.9,0-114.86-35.52Q0,287,0,219.38c0-36.57,8.61-70,25.84-99.92Q51.67,74.28,96.42,49.65c27.82-15.37,58.75-23,92.25-23,22.61,0,40.74,1.7,54.59,4.92Q264,36.58,290.47,51.83c.29-.33,1.66-1.39,4.13-3.56a28.46,28.46,0,0,1,5.86-4.45l10.31-4.16h5.35v0ZM507.57,161.75A22.48,22.48,0,0,1,503.42,180a32.58,32.58,0,0,1-16.94,11.08,37.8,37.8,0,0,1-5.35.8c-2.45,0-6.15-1-11.39-2.93-5.07-1.86-8.63-2.93-10.75-2.93-14.14,0-28.15,7.84-41.83,23.51-6.61,7.38-14.14,18.63-22.62,33.2L354.85,355.92h-39.5l39.5-140.51q1.84-6,3.26-10.16a24.15,24.15,0,0,0,1.37-6.59,10,10,0,0,0-3.27-7.24,13.84,13.84,0,0,0-6.73-2.17c-2.32,0-5.09.93-8.17,2.64a48.61,48.61,0,0,0-8,6.29L313.49,218l-12.15-12.16c14-18.89,27.52-33.82,40.44-45,17.55-14.9,33.06-22.43,46.89-22.43a37.29,37.29,0,0,0,4.47.43c4,.33,7.06,1.56,9.18,3.87,2.32,2.12,4.35,5.35,6.19,9.66A55.14,55.14,0,0,1,411,167.41c.15,5.2.44,10.46.59,15.53,8.17-12.6,17.69-23.05,28.47-31,12.3-9.41,24.6-14,36.91-14,8.12-.61,15,1.24,20.9,5.53,6.05,4.47,9.26,10.48,9.73,18.33Zm501.85,135.11A232.91,232.91,0,0,1,991,324.4c-9.4,12-17.69,20.61-25.21,26.16a134.67,134.67,0,0,1-17.84,8.9A43.27,43.27,0,0,1,931,363.15c-7.67,0-14.61-3.07-20.59-9.08-4.63-4.73-7.23-10.89-8.17-18.45a88.54,88.54,0,0,1,2.31-17.83c1.38-7.06,4.31-16.76,8.47-29.06l19.35-66.56c1.22-4,2.17-7.25,2.79-10a32.4,32.4,0,0,0,.89-7.22,13.43,13.43,0,0,0-4.12-10.18,12.51,12.51,0,0,0-8.47-3.69,19.74,19.74,0,0,0-9.55,2.65c-1.51.61-6.58,4.31-15.36,11.22-12.94,10-23,18.73-30.57,26.43s-15.39,17.37-23.84,29.05c-9.7,13.25-19.69,33.23-30.14,59.81-3.4,8.79-7.71,20.62-13.07,35.66H759.87l33.35-122.52c1.23-4.77,2.75-10.92,4.78-18.32,1.85-7.36,2.93-12.43,2.93-15.51,0-5.39-1.85-7.66-5.39-6.77q-2.58,1-5.24,1.86a26.27,26.27,0,0,0-6.16,3.07L758.93,215.4l-12.6-11.22a279.43,279.43,0,0,1,22.75-26.91,208.23,208.23,0,0,1,28.16-24.12c6.57-5.11,11.83-8.47,15.81-10.31a36.55,36.55,0,0,1,17.07-4A49,49,0,0,1,843.5,141c4.59,1.52,7.38,3.83,8.46,7.06,1,3.07,1.53,7.38,1.53,12.78v8.61a137.14,137.14,0,0,1-1.09,18c-.77,6-1.66,11.86-2.93,17.54q15-12.08,30.17-23.85c13.52-10.45,26-18.91,37.52-25.21a154.35,154.35,0,0,1,14.29-7.25c8.46-3.83,16.26-5.82,23.51-5.82,8.93,0,19.07,2.6,30.15,7.66,3.54,1.56,5.39,6.49,5.39,14.94a89.49,89.49,0,0,1-1.56,16.62,165.25,165.25,0,0,1-4.74,18.88l-22.93,80.14c-2.14,6.91-3.7,12.3-4.59,15.81s-1.37,6.47-1.7,8.6c0,3.88,1.09,6.63,3.54,8,2.46,3.41,8.61,1.7,18.45-4.93q9.43-6.66,19.35-19.81l13.1,8.12Z"/><path class="cls-1" d="M1275.73,48.74a25.17,25.17,0,0,1-10.18,15,32.12,32.12,0,0,1-18.71,5.71c-7,0-13.4-6.14-19.41-18.15s-11.35-18-16.13-18c-16.93,0-33.06,7-48.43,20.91q-23.3,21-34.92,58l-12.59,37.83h126.08l-36,132.85a142.6,142.6,0,0,0-4.59,13.95,64.56,64.56,0,0,0-1.73,10.78c0,3.36.77,5.83,2.61,7.68,2.18,2.45,7.09,1.7,14.94-2.28s15.68-11.26,23.81-22l12.62,7.68a204.1,204.1,0,0,1-18,27.38c-9.06,11.83-17.4,20.58-25.2,26.59-13.24,7.84-24.92,11.68-35.24,11.68-7.67,0-14.59-2.93-20.59-8.91-4.31-4.77-7.1-10.79-8.61-18,0-5.22,1.36-12.93,4-23.19,2.78-10.47,4.94-18.46,6.35-24.17l32-113.92h-80.14L1001.23,537H968.82l91-360.87h-42.27l10.31-26.12h39.65l9.08-25.68q21-59.53,67.5-90.12c26.13-17.36,54.43-26.12,84.7-26.12,11.4,0,22.16,3.54,32.16,10.6s15.2,15.37,15.2,25.07A23.41,23.41,0,0,1,1275.73,48.74ZM1613.5,0l-76.57,278.88c-3.37,11.07-5.21,19.39-5.82,24.74a14.19,14.19,0,0,0,2.6,8.19c1.86,1.36,6.16.57,13-2.79,9.09-4.46,17.56-11.83,25.23-22l12.62,7.56c-3.83,7.81-9.83,17-18,27.5-9.22,12-17.68,20.91-25.2,26.63-12.65,7.52-24.32,11.21-35.06,11.21-8.79,0-15.38-2.6-20.14-8.14a42,42,0,0,1-9.25-18.46c0-6.62,3.7-22.14,10.74-46.74l59.53-212.19c1.54-4.77,2.79-8.59,3.67-11.54a29.81,29.81,0,0,0,1.25-7.38,16.46,16.46,0,0,0-1.7-7.7c-3.7-6.92-8.74-11.36-15.38-13.53l-6.76-11.7c16-2.45,34.76-6.76,56.29-13C1591.84,7.38,1601.49,4.31,1613.5,0Zm221.89,517.66-40.58-50.87v-7.25c6.59,0,11.67-1.84,15.2-5.53,3.67-2.6,6-7.71,6.76-15.23,0-6.29-2-10.75-6.31-13.53-2.6-3.54-7.25-5.39-13.8-5.39h-7.25v84.25l2.61,3.07,10.47.95v9.51h-54.57v-9.51l10.42-.95,2.63-3.07V420.8l-2.63-1.85-10.42-1.38v-8.45h59.48c12.62,0,22.14,2.14,28.76,6.63s10,11.21,10,19.81c0,7.85-2.45,13.82-7.25,18.12a77.89,77.89,0,0,1-12.11,8.94l36.91,48.73,5.82,6.29h-34.12v0Z"/><path class="cls-1" d="M1261.88,418l-10.31.94-2.28,2.32v53.5c0,16.28-3.54,27.82-10.64,34.74s-18.74,10.31-35.34,10.31a86.49,86.49,0,0,1-13.07-.92,27.65,27.65,0,0,1-10.32-3.53,30.94,30.94,0,0,1-20.29-22.61c-.94-4.16-1.37-10.59-1.37-19.39v-52.1l-1.85-2.32-11.7-.94v-8.9h55V418l-10.47.94-2.15,2.32v54.41c0,9.69,1.69,16.94,5.36,22.14,4.16,4.15,10.64,6.28,19.38,6.28s14.44-2.45,17.07-7.2c4-4.49,5.82-12.48,5.82-23.84v-51.8l-2.12-2.32-11.86-.95v-8.89h41.06V418Zm152.21-.9-9.83,1.86-3.27,2.73v95.95h-25.62l-62.6-82.85v69.31l1.85,3.08,10.73,1v9.5h-40.88v-9.5l10.31-1,3.09-3.08v-83.3l-1.7-1.84-11.7-1.39v-8.46h45.8v4.45l56,71.67V421.71L1383.5,419l-10.31-1.86v-8h40.9v8Zm78.41,100.54h-57.68v-9.5l11.7-1,2.79-3.08v-83.3l-2.79-1.84-11.7-1.39v-8.46h57.68v8.46L1480.82,419l-2.76,1.84v83.3l2.76,3.08,11.68,1Zm134.23-100.07L1616,420.34l-42.92,97.32h-21l-40.58-97.79-12.15-2.28v-8.46h53.64v8.46l-10,1.39-1.86,1.84,28,67,30.58-67L1598,419l-10.46-1.39v-8.46h39.19v8.46Zm99.93,100.07H1633v-9.5l10.76-1,2.31-3.08v-83.3L1643.8,419,1633,417.59v-8.46h89.19v26.45h-14l-2.18-14.3-3.21-1.84H1675v36.42h20.59l2.31-3.07,1.86-8.6H1711V478h-11.21l-1.86-8.13-2.31-2.78H1675v39.68h33.21l2.34-2.65,2.73-18.44h13.37v32Zm233.41-35.21c0,11.08-4.76,20.15-14.46,27.07-7.71,6.62-19.06,9.84-33.67,9.84L1896.1,518l-19.38-4.92V483.41h14.92l3.54,20.3,2.31,2.59,6.3.47h6.28a24,24,0,0,0,16.61-6.32,12.08,12.08,0,0,0,5.4-10.28l-.48-4.49a7,7,0,0,0-2.13-3.84c-1.24-1.36-3.69-2.46-7.25-3.37s-7.23-2-10.79-3.24l-9.49-3.52c-9.22-4.62-15.38-9.07-18-13.53a27,27,0,0,1-5.85-17.56c0-10.92,3.83-19.19,11.67-25.2s17.84-9.08,30.12-9.08h10c3.24.94,6,1.55,8,2,2.18.44,4.49.92,6.76,1.52a83.56,83.56,0,0,1,10.47,3.7v27.05h-15.38L1936.2,422l-1.85-1.72-4.49-.89-4.94-.47c-5.82,0-10.58,1.23-14.41,3.54-3.7,3.38-5.39,7.06-5.39,11.35,0,6,6.75,11.7,20.14,17.08l3.69,1.38c.28,0,5.4,2.15,15.39,6.75,5.39,2.33,8.76,4.32,10.31,5.87,3.56,4.47,5.42,10.3,5.42,17.52Zm75.18,35.21h-57.66v-9.5l11.69-1,2.78-3.08v-83.3l-2.78-1.84-11.69-1.39v-8.46h57.66v8.46L2023.57,419l-2.3,1.84v83.3l2.3,3.08,11.68,1Zm115.8-76.26h-14V421.28l-2.61-1.41H2116v84.25l3.07,3.08,10.92,1v9.5h-56.9v-9.5l10.92-1,3.09-3.08V419.87h-18.92l-2.61,1.41-.48,20.12H2052V409.13h99Zm128.37-23.81-10.31,1.85-32,50.43V504.6l2.15,2.6,11.85,1v9.5h-56.88v-9.5l11.37-1,2.16-2.6V476.16l-31.52-56.29-10.79-2.28v-8.46h52.76v8.46l-10,1.39-1.22,1.84,20.6,38.72,24-37.49-.91-2.61-10.45-1.85v-8.46h39.2ZM1775.28,170.36a39.23,39.23,0,0,0-15.87-3.69c-11.35,0-23.65,5.21-36.91,15.39a167.61,167.61,0,0,0-31.81,34.25,223.41,223.41,0,0,0-23.82,42.9c-6.16,14.92-9.22,27.69-9.22,38.13,0,4.78.88,8.93,2.74,12.17a27.64,27.64,0,0,0,4.15,5.82,24.66,24.66,0,0,0,5.69,5.39,23.43,23.43,0,0,0,17.07,6.75c10.31,0,21.51-6,33.81-18,8.14-7.86,17.36-19.39,28-34.77a232.59,232.59,0,0,0,23.83-44.58c6.92-16.76,10.32-30.88,10.32-42.28,0-9.37-2.59-15.24-8-17.51ZM1886,1.84l-75.18,279.64c-2.18,5.88-3.54,10.17-4.31,13.12s-1.54,6.9-2.45,11.82a9.86,9.86,0,0,0,3.22,7.53c3.21,3.39,9.7,1.7,19.35-4.92,6-4.16,12.49-10.75,19.37-19.83l12.6,8.14a186.7,186.7,0,0,1-18.11,27.53c-8.93,11.7-17.35,20.29-25.2,26.13-13.24,8-25,12.17-35.06,12.17-7.84,0-14.77-3.08-20.77-9.08a34,34,0,0,1-8.62-18.46l.94-16.6q-21.48,23.33-38.3,32.78c-13.83,7.82-29.66,11.81-47.65,11.81-14.46,0-26.45-3.53-36.15-10.45-13.53-9.54-20.14-25.07-20.14-46.45q0-63.37,54-117.46,51-51,100.87-50.87a134.91,134.91,0,0,1,37.05,5.35l18-67.18c1.36-4.45,2.61-8.13,3.5-11.21a26.22,26.22,0,0,0,1.41-8.14,16,16,0,0,0-1.85-7.56c-3.54-6.58-8.61-11.08-15.23-13.06l-5.85-12.15c15.84-2.46,34.43-6.76,55.81-13.07q14.49-4.48,28.78-9.53Zm-417.13,183c0,24-18.63,45.22-55.84,64a285.67,285.67,0,0,1-93.62,27.83c0,19.53,2.6,33.81,8.15,42.9,5.4,8.94,14.44,13.39,27.33,13.39a67.94,67.94,0,0,0,19.88-2.95,199.21,199.21,0,0,0,22.14-7.83c8.9-4.75,15.66-8.61,20.29-11.22,5.95-3.68,12.44-8,19.35-13.06l6.28,4.92,4,4.46a85.64,85.64,0,0,1-9.25,9.7c-4.15,3.83-7.83,7.37-11.53,10.58l-15.23,12.64a153.06,153.06,0,0,1-31.65,17.22,94.7,94.7,0,0,1-34.15,6.28c-24.59,0-42.58-3.82-53.66-11.39-15.84-10.45-23.84-30.28-23.84-59.32q0-59.07,50.9-107.34,47.76-44.94,97.77-45c14,0,26.48,4.15,36.92,12.44s15.73,18.91,15.73,31.82ZM1412.55,172c-2.31-2.28-6-3.51-10.74-3.51-8.79,0-16.92,2.6-24.8,7.66-12.59,8.47-23.65,20-32.88,34.59a152.93,152.93,0,0,0-18.44,41.06c19.81-5.07,34.45-10,44.12-14.9a91,91,0,0,0,35.06-28.75,109.37,109.37,0,0,0,8.13-11.69c2.77-4.91,4.18-9.22,4.18-13.05a16.46,16.46,0,0,0-4.63-11.41ZM733.3,297.34c-4.17,8.14-10.33,17.23-18.46,27.53-9.22,12-17.69,20.59-25.21,26.13-12.93,8-24.61,12.17-35.1,12.17-8.14,0-14.73-2.61-19.65-8a38.5,38.5,0,0,1-9.69-19.55,124.56,124.56,0,0,1,2.47-13.07,39.92,39.92,0,0,1,4.3-9.5,241,241,0,0,1-36,30.74c-19.21,13.22-36.09,19.82-50.43,19.82-22.9,0-39.51-6-50.1-18.14-8.93-10.47-13.54-24.91-13.54-43.21q0-45,46-101.32,51.39-62.92,109.47-63h9.52a30.64,30.64,0,0,1,8.92,1.38l5.07,1.23,4.45,1.38,4.45,2.3,4.93,2.61,4.61-8.9H722L685.13,281.51c-.91,4.32-2.14,9.09-3.69,14.49-1.37,5.38-2.14,8.89-2.14,10.45a9.5,9.5,0,0,0,3.08,7.52c2.45,3.4,8.61,1.7,18.44-4.91,6.3-4.47,12.78-11.08,19.36-19.83l13.12,8.11Zm-77.51-99.16a31.41,31.41,0,0,0,.44-5.4v-4c0-15.08-4.59-22.62-14-22.62-16.17,0-32.16,6-47.69,17.69-10.45,7.67-20.9,18.6-31,32.41C552.28,231.22,544.61,244,540,254.6c-5.35,12.91-8,27.35-8,43.67,0,12,2.18,20.59,6.49,25.65s10.13,7.25,17.35,6.33c10.17,0,22.46-5.4,36.9-16.32,12.59-9.23,22.75-19.53,30.14-30.61,19.22-27.34,30.3-55.62,32.93-85.14Z"/></g></g></svg>