<svg xmlns="http://www.w3.org/2000/svg" viewBox="0 0 555.57 277.51"><defs><style>.cls-1{fill:#fff;}</style></defs><g id="Capa_2" data-name="Capa 2"><g id="Capa_1-2" data-name="Capa 1"><path class="cls-1" d="M409.39,0a54.09,54.09,0,0,0-38.78,15.63,49,49,0,0,0-14.9,35.47c0,15.14,4.87,26.42,15.63,36.5,9.7,9,22.86,13.9,37.48,13.9,13.7,0,28-5.53,37.47-14.5,9.42-8.8,15.07-22.16,15.06-36.18s-4-25.14-12.6-34.3A54.15,54.15,0,0,0,409.39,0Zm61.05,1.3h-1.17a4.3,4.3,0,0,0-3.15,1.1c-.9,1.14-.62,3-.62,4.32,0,4.05,0,8.1,0,12.17a27.67,27.67,0,0,0,0,2.88c.07.8.17,1.77,1.07,2,1.8.5,2.06-2.35,2.23-3.46.55-3.48,1-7.13,3.56-9.82,2.08-2.17,5-3.1,7.85-3.67a44.68,44.68,0,0,1,6.9-.76c3.55-.14,7.2-.26,10.73,0a6.08,6.08,0,0,1,3.85,1.1,3.68,3.68,0,0,1,1.06,2.73c.15,2.7.1,5.13.1,8.13l-.08,64.23a24,24,0,0,1-.73,7.5,7.55,7.55,0,0,1-4.4,4.5c-2.4,1-4.94,1.12-7.5,1.44-1,.13-2.58.3-2.88,1.5s.9,2,1.94,2.2a16.48,16.48,0,0,0,4-.1c1.3-.08,2.62-.17,3.93-.23q3.36-.15,6.72-.23,4.38-.09,8.76-.06c2.63,0,5.26.08,7.9.16,2.28.1,4.57.2,6.86.35a15.43,15.43,0,0,0,4.6.07c1.1-.27,2.35-1.17,1.7-2.43-.47-.94-1.9-1.07-2.8-1.2-1.33-.2-2.67-.25-4-.46-2.38-.4-4.94-1.22-6.57-3.13a9.5,9.5,0,0,1-1.86-5.43c-.23-2.38-.2-69.08-.2-69.08,0-2.47-.08-5,.07-7.44a5,5,0,0,1,.87-2.8,3.8,3.8,0,0,1,2.46-1.14,27.27,27.27,0,0,1,4-.2,78.33,78.33,0,0,1,15.23.83,14,14,0,0,1,7.28,3.26c2.22,2.1,3.16,5.13,3.7,8,.28,1.52.27,3.35,1,4.73.37.7,1.3,1.36,2,.72a1.44,1.44,0,0,0,.4-.67,11.38,11.38,0,0,0,.17-3.45V7.73a29.33,29.33,0,0,0,0-3.75,3.48,3.48,0,0,0-.63-1.64,3.4,3.4,0,0,0-2.52-1,36,36,0,0,0-4.76.13c-8.82.48-17.73.7-26.52.78-3.75,0-7.5.06-11.24.06s-7.3,0-11-.06L490,2.1c-5.33-.12-10.66-.35-16-.6-1.15-.06-2.33-.18-3.5-.2ZM250.9,1.75c-8,0-17.2.7-27.5.7-7.07,0-11.14-.3-11.67-.3a3.86,3.86,0,0,0-2.3.6,1.28,1.28,0,0,0-.17,1.9,4.06,4.06,0,0,0,2.7,1c1.14.1,2.3.2,3.44.4a11.56,11.56,0,0,1,3,.84,6.6,6.6,0,0,1,3.7,3.9,22.77,22.77,0,0,1,.76,7.24v64.8c0,3.27-.1,5.5-.73,7.37a6.68,6.68,0,0,1-3.74,4.06c-2.45,1.22-5.16,1-7.74,1.65-1.18.32-2.4,1.45-1.47,2.72a1.82,1.82,0,0,0,.9.65,7.07,7.07,0,0,0,3,.17c1.37-.1,2.75-.2,4.13-.28,3.16-.18,7.62-.36,13.42-.36s10.26.18,13.42.36c1.08.06,2.2.16,3.3.22a12,12,0,0,0,3.33,0,1.88,1.88,0,0,0,1.6-1.17A1.84,1.84,0,0,0,251,96.05a11.93,11.93,0,0,0-3.1-.55c-2.55-.4-5.4-.82-7.3-2.72a6.15,6.15,0,0,1-1.6-2.6c-.62-1.86-.7-4.1-.72-7.36l-.06-28.1c2,0,4.34-.2,6.26.65a7.87,7.87,0,0,1,3,2.54l31.1,39a5.62,5.62,0,0,0,2.8,2,12.44,12.44,0,0,0,3.6.36c2.1,0,4.4-.15,6.78-.15,9,0,20.25-.33,29.22-.4,6-.07,12,0,18.08.33l3.7.22c1.34.1,3,.4,4.27-.27a1.59,1.59,0,0,0,.4-2.57,1.88,1.88,0,0,0-.5-.36,10.67,10.67,0,0,0-3.26-.6,22.31,22.31,0,0,1-5.12-1c-2.2-.78-4.12-2-5-4.26-.78-1.9-1-4.18-1-7.46V18c0-3.54.26-6,1.15-7.92a6.57,6.57,0,0,1,4.55-3.64,51,51,0,0,1,5.56-.8c1.1-.15,4,0,4.06-1.67.05-.7-.64-1.17-1.23-1.4a7.85,7.85,0,0,0-2.84-.4c-.4,0-2.42.16-5.6.3s-7.7.3-13.4.3q-6.45,0-12.92-.3c-1.42-.06-2.84-.16-4.27-.2a13.53,13.53,0,0,0-4.16.2c-.7.2-1.67.58-1.7,1.44,0,1.32,1.7,1.58,2.68,1.7,1.65.18,3.32.16,5,.4a13.23,13.23,0,0,1,3.2.86,6.76,6.76,0,0,1,3.73,3.9,21.47,21.47,0,0,1,.85,7.24v64.8c0,3.2-.16,5.45-.9,7.36a7.34,7.34,0,0,1-4.12,4.06,18.7,18.7,0,0,1-6.17,1.3,15.11,15.11,0,0,1-6.77-.93,23.09,23.09,0,0,1-8-6.2L260.4,52.35c4.7-1,9.36-2,13.66-4.2a25.14,25.14,0,0,0,7-5.2c3.76-4.13,5.75-9.46,5.76-16.27,0-9.14-3-15-8.9-19s-15-5.9-27.07-5.9ZM40.48,2.18c-.43,0-.87.07-1.3.1-1.36.07-2.74.15-4.12.2-3.17.16-7.63.3-13.35.3Q13.85,2.78,6,2.36c-1.5-.08-3.3-.4-4.76.07A1.4,1.4,0,0,0,1,5.11a7.86,7.86,0,0,0,2.63.54c1,.12,1.95.22,2.92.38a12.06,12.06,0,0,1,3,.85,6.58,6.58,0,0,1,3.68,3.92A22.51,22.51,0,0,1,14,18v64.8c0,3.28-.1,5.5-.73,7.38a6.69,6.69,0,0,1-3.74,4,10.85,10.85,0,0,1-3.07,1c-1.13.2-2.27.25-3.4.43-.9.13-2.18.27-2.73,1.07a1.67,1.67,0,0,0,.6,2.42c1.15.62,2.62.32,3.87.23s2.36-.17,3.55-.23c3.16-.2,7.62-.36,13.4-.36s10.27.17,13.43.36c1.2.07,2.4.2,3.6.3,1.4.1,4.5.6,4.78-1.47a1.67,1.67,0,0,0-.33-1.2,2.56,2.56,0,0,0-1.32-.83,41,41,0,0,0-4.72-.74,11.56,11.56,0,0,1-3.07-1,6.87,6.87,0,0,1-3.8-4c-.67-1.88-.8-4.13-.8-7.38V51.55H80.93V82.82c0,3.28-.1,5.5-.73,7.38a6.71,6.71,0,0,1-3.73,4,10.84,10.84,0,0,1-3.1,1,45,45,0,0,0-4.73.72A2.07,2.07,0,0,0,67,97.2a1.68,1.68,0,0,0,1.08,2c1.5.6,3.3.2,4.85.08,5.34-.42,10.7-.53,16.06-.5s10.7.1,16,.56c1.48.13,4.38.66,5.26-1a1.58,1.58,0,0,0-.23-1.77,2.58,2.58,0,0,0-1.23-.65c-2.62-.75-5.4-.47-7.9-1.72a6.71,6.71,0,0,1-3.72-4c-.62-1.88-.72-4.1-.73-7.38V18a22.15,22.15,0,0,1,.78-7.22c1.47-4.26,6.1-4.63,9.93-5.2,1.08-.17,3-.18,3.24-1.63a1.33,1.33,0,0,0-.57-1.2,2.74,2.74,0,0,0-1.3-.48,22.44,22.44,0,0,0-4.1.08c-1.38.05-2.75.13-4.12.18-3.86.16-7.73.23-11.6.23-5.72,0-10.18-.14-13.35-.3-1.43-.06-2.85-.13-4.27-.22-1.22-.06-3.2-.34-3.85,1a1.27,1.27,0,0,0,.27,1.5,3,3,0,0,0,1.06.45c2.63.7,5.4.53,7.93,1.63a6.55,6.55,0,0,1,3.66,3.92A22.51,22.51,0,0,1,81,18V46.55H29.47V18c0-3.53.25-6,1.14-7.9a6.55,6.55,0,0,1,4.56-3.65c2-.5,4.1-.77,6.14-1.1a2.57,2.57,0,0,0,1.6-.72c.8-1-.15-2.1-1.14-2.36a4.35,4.35,0,0,0-1.3-.1Zm82,0c-.87,0-2.1.1-2.62.9a1.44,1.44,0,0,0,.85,2c1.67.68,3.68.58,5.44.88a11.94,11.94,0,0,1,3,.85,6.58,6.58,0,0,1,3.68,3.92,22.84,22.84,0,0,1,.77,7.22v64.8c0,3.28-.1,5.5-.73,7.38a6.69,6.69,0,0,1-3.74,4,19.92,19.92,0,0,1-5.6,1.34c-1.33.17-4.2.24-3.9,2.3a2,2,0,0,0,1.6,1.5,12.22,12.22,0,0,0,3.14,0c4.16-.24,8.3-.5,12.48-.57l4.5,0c33,0,50.8.72,53.43.7a18.3,18.3,0,0,0,2.77-.14,2.27,2.27,0,0,0,2.15-2.1,34.44,34.44,0,0,0,.12-3.67c0-1.34.1-2.7.18-4,.15-2.7.35-5.4.38-8.1a11.14,11.14,0,0,0-.44-4.46,1.44,1.44,0,0,0-1.46-.94,2,2,0,0,0-1.56,1.15,9.7,9.7,0,0,0-.67,2.44c-.2.88-.42,1.76-.7,2.62a17.89,17.89,0,0,1-1.72,3.87,15.61,15.61,0,0,1-8.77,7c-3.9,1.32-8.8,1.8-15.2,1.8a50.12,50.12,0,0,1-12.15-1.06,10.23,10.23,0,0,1-6.64-4.57,14.18,14.18,0,0,1-1.67-5.3,70.62,70.62,0,0,1-.44-9.85l.13-23.63c4.45,0,9.05-.08,13.37,1.22a12.56,12.56,0,0,1,1.46.5,12.21,12.21,0,0,1,6.85,6.47,22,22,0,0,1,1.4,4,12.72,12.72,0,0,0,1,3.33,1.41,1.41,0,0,0,2.55.2c.73-1.2.48-2.65.38-3.95l-.3-4.1c-.3-4.1-.46-8.18-.46-12.27s.3-8.46.6-12.7a10.65,10.65,0,0,0-.07-4.06,1.71,1.71,0,0,0-2.67-1c-1,.83-1.08,2.33-1.28,3.48a33.28,33.28,0,0,1-.7,3.47,15,15,0,0,1-1.57,3.77,13.22,13.22,0,0,1-6.8,5.6c-3,1.15-6.62,1.68-11.5,2l-2.37.15c0-1.15-.18-34.2.15-36.46a5.81,5.81,0,0,1,.55-1.86c.8-1.52,2.44-1.77,4-1.92s3.44-.14,5.85-.14h1.15c7,0,14.4.22,18.67,1.23s7.5,2.95,9.56,6.3a12.11,12.11,0,0,1,1.48,3.48c.3,1.2.46,2.25.6,3.1a9.42,9.42,0,0,0,.56,2.37,1.83,1.83,0,0,0,2.12,1.06,1.86,1.86,0,0,0,1.3-1.66,14.84,14.84,0,0,0-.24-3.64,41,41,0,0,1-.3-4.7c0-4.13.45-6.8.44-7.78a3.88,3.88,0,0,0-.5-2.1,3.88,3.88,0,0,0-2.82-1.38,60.93,60.93,0,0,0-8.76-.24c-13.5,0-27.24.43-37.66.43-13.54,0-21.36-.6-22.6-.58ZM408.83,3.56a30.49,30.49,0,0,1,25,12.3c6.12,8.07,9.6,19.8,9.6,34.82s-3.7,26.8-10,34.9a30.85,30.85,0,0,1-24.92,12.36c-9.88,0-18.68-4.58-24.82-12.83S374,65,374,50.41s3.67-26.22,9.9-34.3a31,31,0,0,1,25-12.54Zm-163.7,1.6c8.3,0,14.6,1.7,18.86,5.72s6.1,10.08,6.1,17.92c0,7.64-1.9,13.45-6.72,17.1s-11.78,4.93-21.64,5l-3.36,0V10.49a8.56,8.56,0,0,1,.33-2.68,3.3,3.3,0,0,1,1.1-1.58c1.17-.84,2.56-1.05,5.36-1.1Z"/><path class="cls-1" d="M331.23,116.05a2.11,2.11,0,0,0-1.66.8,7.69,7.69,0,0,0-1.17,2.1l-32.13,76.6a68.09,68.09,0,0,1-4.4,9.1,14.41,14.41,0,0,1-6.72,6.12,48.82,48.82,0,0,1-5.55,1.48,2.36,2.36,0,0,0-1.6.94,1.5,1.5,0,0,0,.18,1.63,2.57,2.57,0,0,0,1.5.84,10.39,10.39,0,0,0,2.73.13c2-.06,4-.28,5.95-.4s4.08-.16,6.12-.15c1.83,0,3.67.1,5.5.25.93.06,1.87.15,2.8.23s1.88.27,2.8.27a8.14,8.14,0,0,0,3.3-.1,1.91,1.91,0,0,0,1.26-1,1.44,1.44,0,0,0,0-.77c-.3-1.3-2-1.5-3.07-1.73a19,19,0,0,1-3.37-1,8.16,8.16,0,0,1-3.64-2.8,7.16,7.16,0,0,1-1-4.64,22.05,22.05,0,0,1,.77-4.4,33,33,0,0,1,1.07-3.18l6.28-15.67h36.06l6.57,17.4a37,37,0,0,1,1.56,5,10.53,10.53,0,0,1,.38,5.13c-.76,2.93-4.52,3.46-7.05,3.83-.13,0-.26,0-.4,0-1.2.2-4,.38-4.36,1.9-.26,1.17,1.08,1.75,2,1.92a16.37,16.37,0,0,0,3.7.15c1.23,0,2.45-.08,3.67-.16,4-.26,8-.63,12.06-.66s8.1.18,12.14.36c.55,0,1.1.08,1.66.08a32.16,32.16,0,0,0,5.55.1,2.33,2.33,0,0,0,2-1.35c.27-.9-.54-1.6-1.3-1.88a24.53,24.53,0,0,0-4-.85,15.42,15.42,0,0,1-2.9-.88,10.89,10.89,0,0,1-4.74-4,38.18,38.18,0,0,1-3.78-7.4l-31.8-80.2a9.6,9.6,0,0,0-1.32-2.36,2.1,2.1,0,0,0-1.67-.84Zm41.75,1.7h-1.15c-1.1.06-2.42.18-3.16,1.1-.92,1.13-.64,3-.64,4.3,0,4.07.05,8.13,0,12.18,0,1,0,1.93,0,2.9.06.77.17,1.76,1.06,2,1.8.5,2.05-2.35,2.23-3.45.55-3.5,1-7.14,3.55-9.82,2.07-2.17,5-3.1,7.84-3.66a46.69,46.69,0,0,1,6.9-.76c3.54-.13,7.18-.26,10.72-.05a6.52,6.52,0,0,1,3.86,1.1,3.7,3.7,0,0,1,1,2.74c.17,2.7.1,5.14.12,8.14l-.1,64.23a23.92,23.92,0,0,1-.72,7.5,7.43,7.43,0,0,1-4.37,4.5c-2.4,1-5,1.13-7.5,1.45-1,.13-2.6.32-2.9,1.5s.9,2,1.94,2.2a17.1,17.1,0,0,0,4-.08c1.3-.1,2.62-.18,3.93-.25,2.24-.1,4.5-.18,6.73-.23,2.9-.07,5.83-.1,8.75-.07q3.94,0,7.9.16c2.28.1,4.57.2,6.86.36a15.76,15.76,0,0,0,4.6,0c1.1-.26,2.36-1.15,1.7-2.4-.47-.95-1.9-1.1-2.8-1.22-1.33-.2-2.66-.24-4-.46-2.4-.4-5-1.22-6.58-3.12a9.52,9.52,0,0,1-1.87-5.44c-.2-2.37-.13-4.77-.13-7.15l-.07-61.9c0-2.48-.06-5,.08-7.46a5,5,0,0,1,.87-2.8,3.85,3.85,0,0,1,2.45-1.14,30.54,30.54,0,0,1,4.48-.2h-.72c2.75,0,5.5,0,8.25.1a49.08,49.08,0,0,1,7.27.74,14,14,0,0,1,7.3,3.27c2.2,2.12,3.13,5.13,3.67,8.06.28,1.5.27,3.34,1,4.7.36.7,1.3,1.38,2,.74a1.47,1.47,0,0,0,.4-.68A11.38,11.38,0,0,0,458,136l0-7.83v-3.92a27.6,27.6,0,0,0,0-3.75,3.2,3.2,0,0,0-.62-1.63,3.4,3.4,0,0,0-2.52-1,36,36,0,0,0-4.76.14l-4.66.23c-1.84.1-3.68.16-5.52.22-2.4.08-4.82.14-7.23.2-3.05.06-6.1.1-9.12.14q-5.62,0-11.24,0c-3.65,0-7.3,0-11-.06-3,0-5.9-.08-8.86-.15-5.34-.13-10.67-.36-16-.6-1.16-.06-2.34-.18-3.5-.2Zm97.52,0h-1.17a4.18,4.18,0,0,0-3.15,1.1c-.9,1.13-.63,3-.63,4.3,0,4.07.05,8.13,0,12.18a28.09,28.09,0,0,0,0,2.9c.07.77.17,1.76,1.07,2,1.8.5,2.06-2.35,2.23-3.45.56-3.5,1-7.14,3.56-9.82,2.07-2.17,5-3.1,7.84-3.66a47,47,0,0,1,6.9-.76c3.55-.13,7.2-.26,10.73-.05a6.52,6.52,0,0,1,3.86,1.1,3.74,3.74,0,0,1,1,2.74c.16,2.7.1,5.14.12,8.14l-.1,64.23a23.92,23.92,0,0,1-.72,7.5,7.45,7.45,0,0,1-4.37,4.5c-2.4,1-5,1.13-7.52,1.45-1,.13-2.58.32-2.88,1.5s.9,2,1.94,2.2a17.08,17.08,0,0,0,4-.08c1.3-.1,2.62-.18,3.93-.25q3.38-.15,6.74-.23c2.9-.07,5.83-.1,8.75-.07,2.62,0,5.25.07,7.87.16,2.3.1,4.6.2,6.87.36a15.77,15.77,0,0,0,4.6,0c1.12-.26,2.36-1.15,1.72-2.4-.5-.95-1.9-1.1-2.82-1.22-1.32-.2-2.66-.24-4-.46-2.4-.4-5-1.22-6.58-3.12a9.44,9.44,0,0,1-1.86-5.44c-.22-2.37-.2-69.07-.2-69.07,0-2.48-.07-5,.07-7.46a5,5,0,0,1,.86-2.8,3.78,3.78,0,0,1,2.45-1.14,27.47,27.47,0,0,1,4.05-.2,79.13,79.13,0,0,1,15.23.84,14.1,14.1,0,0,1,7.3,3.27c2.2,2.12,3.13,5.14,3.67,8.06.28,1.5.27,3.34,1,4.7.37.7,1.3,1.38,2,.74a1.47,1.47,0,0,0,.4-.68,11.38,11.38,0,0,0,.17-3.45V124.21a26.08,26.08,0,0,0,0-3.75,2.8,2.8,0,0,0-3.16-2.63,36,36,0,0,0-4.76.14c-8.8.48-17.72.7-26.52.78-3.74,0-7.5,0-11.23,0s-7.3,0-11-.06q-4.42,0-8.86-.15c-5.33-.13-10.66-.36-16-.6-1.15-.06-2.33-.18-3.5-.2Zm-233.34.6a3.22,3.22,0,0,0-.62,0,3.07,3.07,0,0,0-2.1,1.54,21,21,0,0,0-1.66,4.4L211,197.49l-1.67-5.5-.47-1.53c-5.2-17-9.33-30.5-12.28-40.6-1.72-5.9-3-10.55-3.86-14a37.69,37.69,0,0,1-1.32-7.26,6.11,6.11,0,0,1,.3-2.07,4.06,4.06,0,0,1,1.3-2,8.89,8.89,0,0,1,3.28-1.53,32.57,32.57,0,0,1,4-.78,22.6,22.6,0,0,0,2.6-.37c.72-.17,1.53-.48,1.6-1.33a1.73,1.73,0,0,0-1.16-1.64,9.45,9.45,0,0,0-3.14-.4c-5.17,0-11.25.73-17.86.74-9.8,0-15.72-.58-17.4-.58a4.94,4.94,0,0,0-2.1.3,1.47,1.47,0,0,0-.8,1.12,1.58,1.58,0,0,0,.37,1.22,5,5,0,0,0,2.77,1.08c1.14.2,2.3.28,3.42.53a7,7,0,0,1,4.33,2.9,23.8,23.8,0,0,1,2.83,6.58l24.92,77.92c.54,1.62,1.07,3.24,1.76,4.8a5.73,5.73,0,0,0,1.5,2.15c1.85,1.53,3.9.33,5-1.37a24.69,24.69,0,0,0,2.43-6l20.76-68.56,20.48,69.57a33.39,33.39,0,0,0,1.37,4.06,5.18,5.18,0,0,0,2.2,2.78,3.17,3.17,0,0,0,3.34-.8A11.56,11.56,0,0,0,261.8,213c.9-2.23,1.57-4.55,2.28-6.84.5-1.55,1-3.1,1.45-4.64.64-2.05,1.3-4.1,1.93-6.18l2.28-7.33c.84-2.68,1.68-5.37,2.5-8.06s1.76-5.6,2.64-8.4l2.6-8.33,2.44-7.85,2.17-7c.6-1.9,1.2-3.8,1.78-5.7.4-1.32.83-2.65,1.24-4,.2-.63.4-1.25.58-1.87a.29.29,0,0,1,0-.1,51.64,51.64,0,0,1,3.34-8.94,9.26,9.26,0,0,1,4.86-4.57c1.07-.4,2.2-.64,3.28-1a5.51,5.51,0,0,0,2.47-1.18,1.37,1.37,0,0,0-.14-2.13,4.28,4.28,0,0,0-1.94-.37,21.73,21.73,0,0,0-3.13.14c-1.9.14-3.78.24-5.68.24-3.4,0-6.8-.07-10.18-.22-2.15-.1-4.3-.27-6.43-.34-1.28,0-3.82,0-3.83,1.83a1.8,1.8,0,0,0,1.57,1.7,22.89,22.89,0,0,0,2.33.32c2.4.35,5,.9,6.74,2.66a6.67,6.67,0,0,1,1.75,4.68c0,5.35-1.43,13.45-4.74,24L263,195.8l-21.76-71.15-.7-2.27a6.73,6.73,0,0,0-1.66-3.3,3,3,0,0,0-1.7-.7Zm88.73,17L341.66,176H309l15.2-36.65Z"/><path class="cls-1" d="M104.63,125.15a15.47,15.47,0,0,0-4.83.8,18.26,18.26,0,0,1-5.85,1.1,9.58,9.58,0,0,1-2.33-.27l-.52-.17-.1,0-1.22,0-.2.38-.4.7v.68h0a8.63,8.63,0,0,1-1.67-.18l-.8-.18-1.1.2-.5,1v29.86l.8,1.17a21.58,21.58,0,0,0,11.73.53,19.31,19.31,0,0,1,4.48-.53,20.28,20.28,0,0,1,8.68,2l0,.07,1.2.07a20.89,20.89,0,0,1,9-2.12,18.83,18.83,0,0,1,4.3.5,22.12,22.12,0,0,0,4.77.5,22.87,22.87,0,0,0,7-1,1.24,1.24,0,0,0,.83-1.18V129.2l-.5-1-1.08-.2-.83.18a9.56,9.56,0,0,1-1.76.2l-.06,0v-.7l-.4-.7-.17-.34h0v0l-1.23,0a7.46,7.46,0,0,1-3,.47,18.21,18.21,0,0,1-5.84-1.1,15.56,15.56,0,0,0-4.83-.8,13.15,13.15,0,0,0-6.78,1.82,13.12,13.12,0,0,0-6.76-1.83Zm0,2.5a11.09,11.09,0,0,1,4.45.92l1.07.55v26a12.14,12.14,0,0,0-6.9-1.77,21.76,21.76,0,0,0-2.9.2c-3.06.4-6.32,1-8.16,1a3.75,3.75,0,0,1-.5,0V129.65a1,1,0,0,0,.08-.26v0a12.73,12.73,0,0,0,2.2.2,21,21,0,0,0,6.65-1.22,12.49,12.49,0,0,1,4-.68Zm13.53,0a12.49,12.49,0,0,1,4,.68,20.75,20.75,0,0,0,6.64,1.2,11,11,0,0,0,2.2-.2v0c0,.1.07.17.08.27v24.86l-.5,0c-1.85,0-5.1-.57-8.16-1a23.58,23.58,0,0,0-2.9-.2,12.32,12.32,0,0,0-6.9,1.78v-26a10.33,10.33,0,0,1,5.5-1.48Zm17.18,3.08v27.4a21.09,21.09,0,0,1-5.35.68,19.39,19.39,0,0,1-4.23-.46,20.72,20.72,0,0,0-4.84-.55,22.59,22.59,0,0,0-8.26,1.62l0-1c.43-.62,2.06-2.53,6.9-2.57a20.76,20.76,0,0,1,2.58.18,77.38,77.38,0,0,0,8.48,1,4.91,4.91,0,0,0,2.37-.46l.64-1.1V130.88h.07a12.08,12.08,0,0,0,1.68-.13Zm-47.78,0a9.38,9.38,0,0,0,1.56.15h0V155.5l.64,1.1a5,5,0,0,0,2.37.45,78.54,78.54,0,0,0,8.5-1,24.92,24.92,0,0,1,2.57-.17,9.88,9.88,0,0,1,5.8,1.5l1,.94.1.1,0,.9a21.88,21.88,0,0,0-8-1.57,21.64,21.64,0,0,0-5,.6,18.45,18.45,0,0,1-4.32.5,19.58,19.58,0,0,1-4.32-.48l-.8-.22Zm31.32,2.5a16.17,16.17,0,0,0-4.73.75,1.25,1.25,0,0,0,.78,2.38l.3-.1a14.05,14.05,0,0,1,3.64-.52,6.67,6.67,0,0,1,2.47.4,18.48,18.48,0,0,0,5.85,1.3,2.79,2.79,0,0,0,1.85-.5,1.27,1.27,0,0,0,.18-1.76,1.24,1.24,0,0,0-1.6-.23l0,0-.4,0a16.65,16.65,0,0,1-5-1.16,9.93,9.93,0,0,0-3.34-.54Zm-15.14.22a9.65,9.65,0,0,0-3.34.54,16.49,16.49,0,0,1-5,1.17l-.38,0h0v0a1.23,1.23,0,0,0-1.44,2,2.79,2.79,0,0,0,1.85.5,18.54,18.54,0,0,0,5.85-1.3,6.73,6.73,0,0,1,2.48-.4,14.3,14.3,0,0,1,2.77.3l.87.23.3.1a1.27,1.27,0,0,0,1.58-.8,1.25,1.25,0,0,0-.78-1.58,16.76,16.76,0,0,0-4.74-.75Zm15.4,6.57a15.83,15.83,0,0,0-5.16.9,1.23,1.23,0,0,0-.75,1.6,1.25,1.25,0,0,0,1.6.74l.33-.1a14.81,14.81,0,0,1,4-.63,8.31,8.31,0,0,1,2.25.3,21.4,21.4,0,0,0,5.77,1.1,2.92,2.92,0,0,0,1.9-.5,1.27,1.27,0,0,0,.18-1.76,1.23,1.23,0,0,0-1.6-.22l0,0-.46,0a20.7,20.7,0,0,1-5-1,10.26,10.26,0,0,0-3-.4Zm-15.66.23a10.3,10.3,0,0,0-3,.4,20.38,20.38,0,0,1-5.05,1l-.43,0h0l0,0a1.22,1.22,0,0,0-1.4,2,2.9,2.9,0,0,0,1.88.5,21.54,21.54,0,0,0,5.77-1.1,8.31,8.31,0,0,1,2.25-.3,13.71,13.71,0,0,1,3,.37l.95.26.33.1a1.25,1.25,0,1,0,.85-2.35,16.87,16.87,0,0,0-5.16-.88Zm15.94,6.45a16.8,16.8,0,0,0-5.62,1,1.26,1.26,0,0,0-.7,1.63,1.23,1.23,0,0,0,1.62.7l.36-.1a13.79,13.79,0,0,1,4.34-.75,9.42,9.42,0,0,1,2,.2,26.56,26.56,0,0,0,5.68.9,3.06,3.06,0,0,0,2-.5,1.27,1.27,0,0,0,.18-1.76,1.22,1.22,0,0,0-1.6-.25l0,0-.12,0-.4,0A25.76,25.76,0,0,1,122,147a11.51,11.51,0,0,0-2.58-.28Zm-16.22.22a10.88,10.88,0,0,0-2.6.3,25.5,25.5,0,0,1-5.07.8l-.5,0h0l0,0a1.22,1.22,0,0,0-1.6.23,1.26,1.26,0,0,0,.2,1.77,3,3,0,0,0,2,.5,27.22,27.22,0,0,0,5.65-.88,8.58,8.58,0,0,1,2-.23,13.88,13.88,0,0,1,3.3.44l1,.3.35.13a1.25,1.25,0,0,0,.92-2.32,17.2,17.2,0,0,0-5.6-1Z"/><path class="cls-1" d="M60,239.65c-.7.37-1.48.73-2.5,1.27-2.35,1.24-4.2,1.92-5.86,3.32s-2.82,3.42-3.78,6.86a1.23,1.23,0,0,0,.57,1.4l1.5-.17c3.43-3.25,5-3.3,7.1-3.36h1.3a14.81,14.81,0,0,0,1.6-.06,8.57,8.57,0,0,0,2-.54c-.23.3-.43.58-.68.94a13.71,13.71,0,0,0-2.44,8,14.34,14.34,0,0,0,.67,4.47l1.13.84,1.2-.73a35.68,35.68,0,0,1,3.55-6.53,9.09,9.09,0,0,1,3-2.75,9.34,9.34,0,0,1,4.6-1H73V271.9a101.15,101.15,0,0,1-36.08-22.26,99,99,0,0,1-9.13-10ZM30.22,216.27A3.6,3.6,0,0,0,31.5,219a4.92,4.92,0,0,0,3,.84,5.34,5.34,0,0,0,2.75-.85,4.3,4.3,0,0,0,1.85-2,3.24,3.24,0,0,0,.14-.73H67.41V217c0,3-.18,6.6-.5,9.62-.15,1.52-.34,2.9-.54,3.94a7.73,7.73,0,0,1-.5,1.82c-.7,1-1.2,1.95-1.65,2.77H24.39A99.75,99.75,0,0,1,14,216.25ZM4.82,169.45H17a6.65,6.65,0,0,0,.48.76,4.59,4.59,0,0,0-.45.14,4.42,4.42,0,0,0-2.37,4.2V175a5.94,5.94,0,0,0,3.27,4.67,12.8,12.8,0,0,0,2.18.94,3.82,3.82,0,0,0-1,2.06l-.06.65a6,6,0,0,0,2.68,4.43,8.34,8.34,0,0,0,.92.56H6.27a144.46,144.46,0,0,1-1.46-18.9m-.06-23.23h24a6.16,6.16,0,0,0-1,3.44v.13a14,14,0,0,0,.87,3.9c.1.23.16.45.24.66a5,5,0,0,0-3.1,3.14A3.84,3.84,0,0,0,25.5,159c0,1.7,1,3.74,3.25,5.4-.05,0-.12,0-.18.07a3.34,3.34,0,0,0-.66.42H25a4,4,0,0,0-.46-1,4.61,4.61,0,0,0-3.06-1.76l-.76-.05a4.3,4.3,0,0,0-4,2.82H4.75ZM73,137.86a6.07,6.07,0,0,0-.5-.9,4.75,4.75,0,0,0-1.62-1.23,4.41,4.41,0,0,0,.2-1.33,5.87,5.87,0,0,0-5-6l-.82-.06a4.21,4.21,0,0,0-3.1,1.25,5.64,5.64,0,0,0-1.42,3.1v.12c-.14,0-.25-.08-.38-.08a3.74,3.74,0,0,0-3,1.42,6,6,0,0,0-1.1,2.6l-.08.93a6.57,6.57,0,0,0,.53,2.47,3.23,3.23,0,0,0-.47,0,3.29,3.29,0,0,0-.84.3,4.26,4.26,0,0,0-2.24-1.28l-.6-.06a1.86,1.86,0,0,0-.37.1,7.25,7.25,0,0,0,.3-1.85,3.72,3.72,0,0,0-1.17-2.88,3.89,3.89,0,0,0-2.22-1h-.26a5.13,5.13,0,0,0-3.28,1.4s-.08.13-.13.18a3.94,3.94,0,0,0-1.7-.4l-.37,0a3.32,3.32,0,0,0-1.42.53A4.75,4.75,0,0,0,41,133a3.86,3.86,0,0,0-3.1-1.43,4.36,4.36,0,0,0-3.65,1.92,7.05,7.05,0,0,0-1.17,4.08,6,6,0,0,0,.25,1.37,2.18,2.18,0,0,0-.7-.13,3.71,3.71,0,0,0-2.88,1.26,4.08,4.08,0,0,0-.8,1.58H4.77v-19H73Zm72.3,27.1H77.05V122.72h68.22ZM47.41,210.61a4.43,4.43,0,0,1,.16-.67,6.82,6.82,0,0,0,1,.77,4.39,4.39,0,0,0,2.17.5H51a4,4,0,0,0,3.25-1.66A14.92,14.92,0,0,0,56,205.08a5.8,5.8,0,0,1,2.1-3.42,8.62,8.62,0,0,1,3.8-1,18.09,18.09,0,0,1,3.24,4c1.46,2.55,1.4,4.57,1.94,7.1H47.23c.06-.4.1-.8.17-1.13m-14.06-7.56c.15-.24.23-.46.36-.7,0,0,.06.1.1.1a3,3,0,0,0,.48.3l-1.1.53a1.46,1.46,0,0,1,.17-.22Zm1.2-27.24v0Zm-.2.2,0,0Zm-4.2-19.34.3,0,1.2-.46.17-1.25s-.4-1-.8-2.1a13.61,13.61,0,0,1-.74-3.1v-.07a3.63,3.63,0,0,1,.56-2.16c.3-.36.67-.6,1.68-.62h0l1,.2.55.68a3.29,3.29,0,0,1,.2.42,11.57,11.57,0,0,1,.56,1.93,13.27,13.27,0,0,1,.2,1.7l0,.48v1l.42.6.32.54h0l0,0,.85-.2.5-.1.07-.06a3.16,3.16,0,0,1,.8-.6,1.69,1.69,0,0,1,.74-.24s.1,0,.14,0l1,.22s0,0,.07,0l.74.8,0,.08A4.79,4.79,0,0,1,41,156l0,0,0,.9a7.59,7.59,0,0,1-1.8,3.7l.14,1.67,1.68,0,.2-.17,1.77-.88h0a2.52,2.52,0,0,1,1,.36l.17.12a3.35,3.35,0,0,1,.22.34,4.21,4.21,0,0,0-.38.53,5.15,5.15,0,0,0-.44,1.72,3.36,3.36,0,0,0-.13.48v.26a5.46,5.46,0,0,0,.44,2.05l.06.15c0,.1.07.23.12.33l-.4.1c-.07,0-.14,0-.22,0a2.88,2.88,0,0,0-1.58,1.28s0,.1,0,.16a3.7,3.7,0,0,0-.37,1.44c0,.1-.06.17-.06.25s.07.18.08.27l.06.6a5.07,5.07,0,0,0,.36.94c.07.16.1.34.18.48a7.6,7.6,0,0,0,1.32,1.65l.1.1a1.88,1.88,0,0,0,.24.18,12,12,0,0,0,1.58,1.14l-.3.18a6.37,6.37,0,0,0-.86.54.33.33,0,0,1-.1.06l0,0a4.25,4.25,0,0,0-.53.42,3.06,3.06,0,0,0-.5.85v0a4.55,4.55,0,0,0-.43,1.6v.42a4.35,4.35,0,0,0,.47,1.76,3.38,3.38,0,0,0,.08.34l-.3-.08-.55-.07-.23-.06h-.13a2.91,2.91,0,0,0-1.05.23,1.51,1.51,0,0,0-.35.2,1.46,1.46,0,0,0-.3.17l-.12.17s0,0,0,.05-.06,0-.1,0l-.43-.13a16.74,16.74,0,0,1-1.8-.8l-.36-.22c-.42-.25-.82-.5-1.18-.76a9,9,0,0,1-.9-.78,4.42,4.42,0,0,1-.88-1.06,2,2,0,0,1-.32-.92l1-.15.08,0,.1,0a1.88,1.88,0,0,0,.88-.46l.16-.07a2.21,2.21,0,0,0,.62-1.58V176a2.77,2.77,0,0,0-.1-.5v-.23l0-.2c0-.14-.08-.25-.1-.38-.08-.28-.17-.55-.27-.82a4.69,4.69,0,0,0-.34-.67c-.08-.13-.13-.3-.22-.43l-.23-.28-.1-.1c0-.06-.07-.14-.14-.2a3.62,3.62,0,0,0-.38-.26l-.45-.4-.22-.15c-.07,0-.17,0-.25-.07a4.25,4.25,0,0,0-1.24-.3,3.64,3.64,0,0,0-.63-.16h-.26l-.07,0h-.1a2.11,2.11,0,0,1-1.4-.62l-.25-.77-.33-.83-.07-.2,0,0-.07-.17s-.1-.08-.14-.13l0,0-.4-.37a1.29,1.29,0,0,1,.7-.93,9.69,9.69,0,0,1,2.53-.66,1.22,1.22,0,0,0,1-1,1.26,1.26,0,0,0-.67-1.3l-1.95-1c-2.15-1.4-2.6-2.83-2.62-3.72l.1-.64c.6-1.46,1.32-1.7,2-1.73m14-19.7a2.22,2.22,0,0,1,.18-.38,3.35,3.35,0,0,0-.18.38m33.37,74.79-.46-1.37V199.73h.4l.68.23.2.3v.05a20.42,20.42,0,0,0-.33,2.92,6,6,0,0,0,1,3.53A5.81,5.81,0,0,0,83.8,209a7.29,7.29,0,0,0,1.87-.25l1.27-.18a2.32,2.32,0,0,1,1.33.34h1.48l.44-1.4-.07-.5a3.81,3.81,0,0,1,.72-2A6.87,6.87,0,0,0,92,201.24a5.46,5.46,0,0,0-1-3.2,6.14,6.14,0,0,0-3.5-2.18,20.4,20.4,0,0,0-2.4-.45l-.2-.13-.1-.5,0-.3.32-.5.32-.23.13,0c.13.05.84.47,1.67.84a7.83,7.83,0,0,0,3.12.74l1.52-.2A5.68,5.68,0,0,0,95,192.6a6.71,6.71,0,0,0,.92-3.18,3.17,3.17,0,0,1,1-2.44l.45-1.4a1.27,1.27,0,0,0-1.2-.87h0a3.08,3.08,0,0,1-2.17-1.4A6.6,6.6,0,0,0,89,180.77a5.56,5.56,0,0,0-1.63.27,6.16,6.16,0,0,0-3.14,2.65A21.26,21.26,0,0,0,83,185.86l-.26.14-.56-.12-.16-.07-.47-.78.1-.18c.1-.16,1-.9,1.7-1.8a6.33,6.33,0,0,0,1.52-3.82,5.58,5.58,0,0,0-1.46-3.7,7.15,7.15,0,0,0-2.73-1.87A7.24,7.24,0,0,1,79,172.8l-.7-.72a1.3,1.3,0,0,0-1.2-.9h0v-1.7H145.2c-.26,16.54-3,30.5-7.4,42.3Zm-.74-39.22.28-.1Zm3.67,15.2.1.08,0,0,.08.06a4.38,4.38,0,0,0,2.1.6,2.73,2.73,0,0,0,2.43-1.4c.3-.5.6-1.26,1.12-2a3.77,3.77,0,0,1,1.82-1.65l.86-.14a4.16,4.16,0,0,1,3,1.6,6.94,6.94,0,0,0,2.1,1.8,7.18,7.18,0,0,0-.66,2.66,4.16,4.16,0,0,1-.6,2,2.93,2.93,0,0,1-1.65,1.4l-.75.12a5.72,5.72,0,0,1-2.12-.54c-.7-.3-1.2-.63-1.68-.84l-1.13-.24a3,3,0,0,0-2.36,1.24,4.84,4.84,0,0,0-.65,1.08l-.07.2a4.19,4.19,0,0,0-.1,1,3.52,3.52,0,0,0,.37,1.66,2.69,2.69,0,0,0,1.86,1.4c.6.13,1.4.18,2.3.43A3.89,3.89,0,0,1,89,199.5a3,3,0,0,1,.52,1.74,4.6,4.6,0,0,1-.73,2.4,6.28,6.28,0,0,0-1,2.56,7.53,7.53,0,0,0-.83-.1,7.4,7.4,0,0,0-1.94.28l-1.2.15A3.29,3.29,0,0,1,81,205.29a3.6,3.6,0,0,1-.53-2.06,18.56,18.56,0,0,1,.33-2.68v-.3a2.82,2.82,0,0,0-1.74-2.6,4.13,4.13,0,0,0-1.45-.4h-.1l-.5,0v-1.84c.17,0,.3.07.45.07a3.58,3.58,0,0,0,.42-7.13,2.92,2.92,0,0,1,1.48,2.54,2.86,2.86,0,0,1-2.34,2.8V174.44a4.11,4.11,0,0,0,.46.4A9.81,9.81,0,0,0,79.8,176a4.64,4.64,0,0,1,1.74,1.18,3,3,0,0,1,.82,2,3.82,3.82,0,0,1-1,2.25c-.58.74-1.2,1.26-1.6,1.7A2.79,2.79,0,0,0,79,185a3.87,3.87,0,0,0,1.37,2.7m-17-37-.47.3.47-.3m-1.8,31.47c.12-.23.22-.48.35-.68a6.16,6.16,0,0,0-.34.68M56,174.61a8,8,0,0,1,1.55-1.24A8,8,0,0,0,56,174.61m.24-9.62a.32.32,0,0,1-.1-.1.32.32,0,0,0,.1.1m4.87,29a14.33,14.33,0,0,1-2.24-.63,9.44,9.44,0,0,1-1.9-1s0,0-.06-.06a3.64,3.64,0,0,1-.45-.4l-.58-1.14-.32-.58-.14-.34,0,0,0,0-.94-.12-.18,0a5.52,5.52,0,0,1-1.73.3l-.18,0a4.39,4.39,0,0,1-1.5-.25l-.45-.4-.13-.14-.2-.44v0l.6-1.24.48-.5.16-.12,0,0,0-.1a1.23,1.23,0,0,0,.5-.84c0-.07-.06-.13-.07-.2l0-.06-.06-.06a1.17,1.17,0,0,0-.77-1,24.74,24.74,0,0,1-2.86-1.13,1.19,1.19,0,0,0-.25-.13,10.52,10.52,0,0,1-1.76-1.07,2.57,2.57,0,0,1-1.18-1.87l0-.1v-.06a1.58,1.58,0,0,1,.6-1.28l1.25-.6.1,0L48,178l1-.32a1.26,1.26,0,0,0,.86-1.2,1.23,1.23,0,0,0-.87-1.18l-.32-.12a10.55,10.55,0,0,1-1.27-.55,14.76,14.76,0,0,1-1.3-.73c-.26-.2-.54-.36-.76-.55a5.89,5.89,0,0,1-.5-.5,5,5,0,0,1-.55-.66,2.86,2.86,0,0,1-.35-.7,2.26,2.26,0,0,1-.08-.3l0-.36.2-.57.9-.2.22,0,.82.08.5-.2.8-.33V169l0-.8-.1-.14a8.09,8.09,0,0,1-.94-1.6,3.72,3.72,0,0,1-.23-.9,3.23,3.23,0,0,1-.12-.55v0a3.08,3.08,0,0,1,.3-1.2,2.56,2.56,0,0,1,.58-.76h.05s.08-.06.1-.1a2.41,2.41,0,0,1,1.1-.53,1.43,1.43,0,0,1,.43-.1l.26,0a3.28,3.28,0,0,1,1,.2l.07,0,.42.44.06.2a4.25,4.25,0,0,1,.13.84.73.73,0,0,1,0,.22,10.15,10.15,0,0,1-.2,1.76l0,.1v0a1.24,1.24,0,0,0,.6,1.35l.48-.07.9,0,.1-.12h0l.3-.3.1-.1.5-.53.47-.25.72.3.12.16a2.82,2.82,0,0,1,.37.53l.1.2a6.89,6.89,0,0,1,.52,1.55,10.38,10.38,0,0,1,.22,1.15l.06.4c0,.56.1,1.13.1,1.66,0,.37,0,.68-.05,1s0,.4,0,.58a.58.58,0,0,1,0,.18c-.06.47-.13,1-.2,1.62a1.2,1.2,0,0,0,.07.46c0,.08,0,.18.05.25a1.18,1.18,0,0,0,.4.4s.06.1.13.14,0,0,0,0l1.43-.24h0a6.88,6.88,0,0,1,1-.85c.07,0,.1-.08.17-.1a1.16,1.16,0,0,1,.67-.24l.17,0a.53.53,0,0,1,.18.05,1.89,1.89,0,0,1,.4.15l.1.06a.69.69,0,0,1,.12.14l.06.1a1.93,1.93,0,0,1,.13.66c0,.08,0,.13,0,.23,0,.6-.12,1.38-.22,2.24a9.08,9.08,0,0,0-.2,1.66,5.83,5.83,0,0,0,.27,1.68,7.76,7.76,0,0,0,.47.9,4.69,4.69,0,0,0,.42.8l0,0,.05.08.7.24.4.17h.05l.8-.66.13-.1v0l.07-.13a4.51,4.51,0,0,1,.47-.83,1.18,1.18,0,0,1,.8-.52c.33,0,1,.34,1.64,1.3a9.37,9.37,0,0,1,1.1,4.6V189l0,1.3v.5l-.06.68a15.78,15.78,0,0,1-.42,2.56,10.76,10.76,0,0,1-2.63.3c-.32,0-.66-.06-1-.08a15.07,15.07,0,0,1-2.4-.27m-4.63,1.06a7.67,7.67,0,0,1-1.47-1,7.9,7.9,0,0,0,1.46,1m-11.13-11.7c-.3-.13-.6-.26-.9-.37.3.1.6.23.9.36m.63-6.6c-.27-.13-.53-.25-.78-.4a8.14,8.14,0,0,0,.78.4m-1.25-17.4a4,4,0,0,1,1,.67,4.31,4.31,0,0,0-1-.68Zm26.36,26.27c-.1.23-.2.47-.3.66v0l-.4.63-.2.25h-.08a10.6,10.6,0,0,0-1.4-5v0A4.6,4.6,0,0,0,65,179.73h0a3.27,3.27,0,0,0-2.1.8,11.83,11.83,0,0,1,.16-1.7,13.22,13.22,0,0,0,.2-2v-.18a4.88,4.88,0,0,0-.18-1.28l-.13-.32a5.44,5.44,0,0,0-.28-.68l-.17-.15a1.86,1.86,0,0,0-.1-.2,2.8,2.8,0,0,0-.43-.3,3,3,0,0,0-.46-.35,4.48,4.48,0,0,0-1-.4c-.06,0-.1-.06-.17-.06h-.05l-.1,0-.65-.07a3.51,3.51,0,0,0-1.2.35v0c0-.3,0-.54,0-.86,0-.54,0-1.14-.1-1.85a.58.58,0,0,0,0-.18l-.1-.76c-.06-.35-.14-.7-.22-1.07s-.08-.5-.15-.74a5.78,5.78,0,0,0-.3-.8.48.48,0,0,0,0-.15l0-.05c-.1-.2-.18-.4-.3-.6l.4,0,.57.06a1.24,1.24,0,0,0,.88-2.28h0v0l-.1-.05a15.18,15.18,0,0,1-1.34-1,12.39,12.39,0,0,1-1.1-1.08l-.3-.37a10.72,10.72,0,0,1-1-1.42l-.36-.6a7.47,7.47,0,0,1-.75-2.4l0-.13,0-.5a2.16,2.16,0,0,1,0-.43v-.07l.1-.22.2-.15.48-.13a4.33,4.33,0,0,1,1.07.2l.3.07a11.71,11.71,0,0,1,1.47.6h0l.07,0a1.25,1.25,0,0,0,1.62-.6,1.24,1.24,0,0,0-.53-1.64l-.07,0v0h0a8.41,8.41,0,0,1-2.6-1.75,2.14,2.14,0,0,1-.68-1.4c0-.4.28-.9,1.06-1.45a5.09,5.09,0,0,1,.7-.34,3.83,3.83,0,0,1,1-.17h.08a4.22,4.22,0,0,1,1.76.37,3.68,3.68,0,0,1,.54.25,1.94,1.94,0,0,1,.57.57s0,.05,0,.07a2.48,2.48,0,0,1,.27,1.18v.05a5.29,5.29,0,0,1-.23,1.47c0,.08,0,.16,0,.25a1.46,1.46,0,0,0,0,.55s.08.06.1.1a1.12,1.12,0,0,0,.4.5h0v0l1.13-.17.4-.05a6.19,6.19,0,0,1,.93-.8,2.74,2.74,0,0,1,.38-.22,1.65,1.65,0,0,1,.37-.13l.52.5a1.52,1.52,0,0,1,.17.36l.08.23a6,6,0,0,1,.18.82,4.73,4.73,0,0,1,0,.53l0,.32,0,.5a7.77,7.77,0,0,1-.14.95,9,9,0,0,1-.37,1.4.38.38,0,0,1,0,.13,9.91,9.91,0,0,1-.62,1.3l-.6.95L64,161l0,.06v.83l0,.76h0a1.22,1.22,0,0,0,1.54.3l0,0a6.28,6.28,0,0,1,1.4-.58l.13,0a5.25,5.25,0,0,1,1.4-.2h0l1.07.2s0,0,.07,0l.5.54a2.47,2.47,0,0,1,.2.37l.46,2.08a5.65,5.65,0,0,0,.1.62l0,.63a5.86,5.86,0,0,1-.56,2.36,9.3,9.3,0,0,0-1,3.3,1.27,1.27,0,0,0,1.1,1.28l0,0s1.43.27,2.5,3.62v2.48c-.25,1.17-.57,2.43-1,3.68-.3.93-.58,1.68-.82,2.25M90,258.46l-12.9-8.15V218.26l6.1,18.2a1.24,1.24,0,0,0,1.17.85h13.1L86.85,245l-.47,1.37ZM58.11,142.56l.9.05a1.22,1.22,0,0,0,1.38-.77,1.2,1.2,0,0,0-.5-1.5,3.42,3.42,0,0,1-1.23-2.67l.05-.46a3.45,3.45,0,0,1,.6-1.52,1.24,1.24,0,0,1,1-.48l.3.1.58.9,0,0a1.23,1.23,0,0,0,1.73.27,1.25,1.25,0,0,0,.3-1.72l-.18-.84.1-.84a3.27,3.27,0,0,1,.73-1.8,1.72,1.72,0,0,1,1.3-.48l.5,0a3.37,3.37,0,0,1,2.83,3.56l-.14.75-.42.3a1.3,1.3,0,0,0-.65,1.42,1.25,1.25,0,0,0,1.22,1h1l.92.7.54,1.38-.67,1a3.52,3.52,0,0,1-1.94.66l-.52,0h-.16a1.25,1.25,0,0,0-.1,2.5h.1l.42,0a1.85,1.85,0,0,0,.23,0l1.18-.06.74.14a2,2,0,0,1,1.23,1,4.36,4.36,0,0,1,.47,1.9l0,1.22a9.06,9.06,0,0,1-.38,2.83,2,2,0,0,1-1.36,1.43,1.25,1.25,0,0,0,.2,2.44c.93.15,1.14.33,1.36.64a5.44,5.44,0,0,1,.5,2.4c.07.8.1,1.76.1,2.7v1.1l-.3-.46c-.1-.14-.12-.3-.23-.44s-.07,0-.1,0a3.44,3.44,0,0,0-1.18-.87L70.5,160a3.57,3.57,0,0,0-.4-.12,6.55,6.55,0,0,0-1.72-.28l-.74.06,0,0,.18-.42a10.11,10.11,0,0,0,.4-1.6c0-.16.1-.3.13-.46,0,0,0,0,0,0v0c.06-.33.07-.66.1-1,0-.13.05-.24.05-.37v-.19l0-.24,0-.73a.65.65,0,0,0,0-.2,8.41,8.41,0,0,0-.2-1l-.2-.6c-.07-.17-.1-.35-.18-.5a3.78,3.78,0,0,0-.28-.46l0-.08,0,0a3.55,3.55,0,0,0-.9-.87l-.28-.16a2.61,2.61,0,0,0-1.23-.34h0l-.05,0a3.06,3.06,0,0,0-1.06.28c0-.2-.06-.4-.1-.6a.19.19,0,0,0,0-.08,4.22,4.22,0,0,0-1.06-1.93l-.2-.2a5,5,0,0,0-.4-.35l-.14-.07-.14-.1a4,4,0,0,0-.73-.3,6.4,6.4,0,0,0-2.68-.7,7.24,7.24,0,0,0-1.1.1v-.05a11,11,0,0,0-.4-2.64,7.74,7.74,0,0,0-.3-.93,10.75,10.75,0,0,1,1.43-.08m-9.24-2,.1,1.42,1.4.38a8,8,0,0,1,2.17-.7l.12,0a2.22,2.22,0,0,1,1.48,1.35,6.37,6.37,0,0,1,.4,1.1,9.24,9.24,0,0,1,.3,2.18,8.48,8.48,0,0,1-.1,1.15.07.07,0,0,0-.05,0,4.16,4.16,0,0,0-.45.4,4.22,4.22,0,0,0-.53.6,2.32,2.32,0,0,0-.22.36,5.8,5.8,0,0,0-.33.66,4.45,4.45,0,0,0-.2,1l0,.1v.08a4.11,4.11,0,0,0,.7,2.1l-.1.07c-.06,0-.1.06-.15.08a2.55,2.55,0,0,0-.88.55s-.1,0-.13.07-.1.2-.15.26a4.64,4.64,0,0,0-.36.44,4.43,4.43,0,0,0-.15.43l0,.13a4.36,4.36,0,0,0-.25,1.4,4.71,4.71,0,0,0,.08.5l0,.32c0,.18.1.34.13.5a9,9,0,0,0,.32,1.38c.1.27.18.5.28.72s.16.44.23.6a1.43,1.43,0,0,1,.14.2,11.58,11.58,0,0,0,.86,1.47l.2.3A15.48,15.48,0,0,0,55,163.86a.44.44,0,0,0-.15,0,3.23,3.23,0,0,0-1-.2c-.07,0-.14-.07-.2-.07h-.06l-.22,0a1.4,1.4,0,0,0-.5.16,5.27,5.27,0,0,0-.37-1.73,3.43,3.43,0,0,0-1.15-1.37c-.07-.05-.1-.15-.17-.2a1.88,1.88,0,0,0-.3-.12,1.28,1.28,0,0,1-.25-.15c-.13-.05-.23,0-.36-.07a6.13,6.13,0,0,0-1.6-.32c-.08,0-.15,0-.2,0l-.1,0h-.2a3.63,3.63,0,0,0-1.05.24,1.59,1.59,0,0,0-.3-.5l-.14-.07a18.2,18.2,0,0,1-3.18-2.8l0-.24,0-.34V156l-.07-1-.14-.73-.1-.54s0-.07,0-.1a.19.19,0,0,0,0-.12,4.71,4.71,0,0,0-.4-.64,3,3,0,0,0-.34-.57,4.7,4.7,0,0,0-.43-.35l0-.1a.83.83,0,0,1,.2-.22.19.19,0,0,1,.1,0,2.83,2.83,0,0,1,1-.3h.07l.67-.06c.5,0,1.08-.1,1.7-.18l.24,0h.08l.72-.67.3-.26v0l-.5-1.32-.6-.48a13.45,13.45,0,0,1-2.16-2.1c-.08-.1-.12-.2-.2-.3a4.11,4.11,0,0,1-.9-2l0-.17a4.56,4.56,0,0,1,.1-.47l.08-.3.08-.13.06-.1.27-.07a4.76,4.76,0,0,1,1.43.43.12.12,0,0,1,.08,0l.06,0,.84-.16.5-.08v0l.32-1.34v0a6.26,6.26,0,0,1-.43-2.06v-.12a3.36,3.36,0,0,1,.28-1.34l.13-.27a3.64,3.64,0,0,1,.67-.9,2.83,2.83,0,0,1,1.6-.77h0l.78.35a1.35,1.35,0,0,1,.38,1,6.71,6.71,0,0,1-1.1,3.15m-17.56,2.92,0-.5a1.83,1.83,0,0,1,.4-1.22l.93-.4c.1,0,.66.3,1.15.57s1,.62,1.35.77l1.48-.26.17-1.5a6.6,6.6,0,0,1-1.14-3.33,4.62,4.62,0,0,1,.7-2.63,1.84,1.84,0,0,1,1.62-.87,1.36,1.36,0,0,1,1.16.5,2.8,2.8,0,0,1,.5,1.8l-.1,1,.6,1.27,1.4-.07c.77-.58,1.3-1,1.62-1.17l.45-.22h.17l.25.1a5.15,5.15,0,0,0-.36,1.84v.2a1.77,1.77,0,0,0,0,.2c0,.2,0,.4.05.62-.13,0-.24-.06-.37-.06h0a2.84,2.84,0,0,0-1.07.2,2.66,2.66,0,0,0-.38.24,2.16,2.16,0,0,0-.6.38,0,0,0,0,1,0,0s0,0-.05,0a4.12,4.12,0,0,0-.56.92c0,.05-.05.1-.07.13a1.16,1.16,0,0,0-.06.22c-.08.24-.14.48-.18.64l0,.33,0,.14,0,.2,0,.3a6,6,0,0,0,1.23,3.27,13.68,13.68,0,0,0,1.35,1.66l.06.06a1.18,1.18,0,0,0-.2,0,3.31,3.31,0,0,0-.55.08l-.27.1a4.43,4.43,0,0,0-.9.4l-.1.05s-.05.06-.1.1a2.6,2.6,0,0,0-.5.36,4.32,4.32,0,0,0-.33.5l-.17.26a1.37,1.37,0,0,0-.13.2,4,4,0,0,0-.57-.14h0a4.17,4.17,0,0,0-1.42.27c0-.32-.1-.66-.15-1a1.35,1.35,0,0,0,0-.28c0-.2,0-.37-.1-.56-.18-.58-.37-1.22-.6-1.85-.06-.12-.07-.23-.12-.35v0c-.07-.15-.18-.26-.25-.4s-.1-.24-.18-.36-.1-.06-.12-.1a3.86,3.86,0,0,0-1.17-1.1s-.06-.05-.1-.07a4.62,4.62,0,0,0-2-.5h-.26a5.54,5.54,0,0,0-.6.06,2.12,2.12,0,0,1-.58-1.08m-9.8,39.68.37-.8a4.41,4.41,0,0,1,2-.86,1.26,1.26,0,0,0-.11-2.47,12.89,12.89,0,0,1-4.6-1.48,3.49,3.49,0,0,1-2-2.67v-.32c0-1.07.24-1.55,1-2a9.42,9.42,0,0,1,2.45-.36,1.24,1.24,0,0,0,1.1-1L21.2,170a9.48,9.48,0,0,1-1.8-1.3,2.23,2.23,0,0,1-.56-1.64l.05-.7a1.85,1.85,0,0,1,1.9-1.68l.3,0a2.11,2.11,0,0,1,1.48.76A2.64,2.64,0,0,1,23,167a8.63,8.63,0,0,1-.16,1.5,1.25,1.25,0,0,0,.7,1.35l1.48-.3,1.32-.53.37.05.4.13.45.44c.17.42.34.95.48,1.43l.2,1.37a2.74,2.74,0,0,1-.78,2l-.07,1.66a1.24,1.24,0,0,0,1.64.26l.22-.2a.24.24,0,0,0,.06-.08l.23-.22a20.53,20.53,0,0,1,1.3-1.74,2.18,2.18,0,0,1,1.15-.83l.08,0a2.11,2.11,0,0,1,.8.15s.1,0,.12,0,.1.07.16.1l.52.45a3.26,3.26,0,0,1,.65,1.4v.38c-.12,0-.2.05-.42.08l-.53.08-.3.17c-.1,0-.18,0-.3.1s-.1.12-.17.16l-.45.25c-.08.1,0,.23-.12.33a2.34,2.34,0,0,0-.54,1.47,2.44,2.44,0,0,0,.2.7,3.6,3.6,0,0,0,.23.87,4.66,4.66,0,0,0,.22.45,7.81,7.81,0,0,0,2.06,2.4c.15.12.32.2.47.3.44.32.9.6,1.36.88.18.1.36.23.57.34s.37.24.58.34a12.29,12.29,0,0,0,1.4.54l.07,0a.39.39,0,0,1,.14,0l.36.13,0,.38c0,.2.07.4.1.62a9.88,9.88,0,0,0-1.3-.4c-.15,0-.3,0-.46-.06a14.93,14.93,0,0,0-3-.4h-.1l-.23,0a3.41,3.41,0,0,0-.54.1,2.7,2.7,0,0,0-.58.1,2.54,2.54,0,0,0-.68.25,1.26,1.26,0,0,0-.34.12c-.06,0-.08.1-.13.12a4.26,4.26,0,0,0-1.16,1.16,3,3,0,0,0-.4,1.35s0,.1,0,.16l0,.08a13.42,13.42,0,0,0-3.38-1.4,11,11,0,0,1-3.7-1.83,3.64,3.64,0,0,1-1.7-2.44Zm4.86,15.22-1.26.43a13.91,13.91,0,0,1-1.67,1.83,2.68,2.68,0,0,1-1.7.78l-1.16-.37a1.18,1.18,0,0,1-.58-1.1c-.06-1.16,1.3-3.2,3.15-3.9l.78-1-.53-1.17c-.62-.44-.7-.76-.7-.9l.38-.56a3,3,0,0,1,1.76-.44l.52,0a21,21,0,0,0,4.26.5,9.22,9.22,0,0,0,2-.23h0c.07,0,.1-.06.18-.08a3.26,3.26,0,0,0,.6-.23,4.38,4.38,0,0,0,.6-.38l0,0,.12-.08.26-.6.13-.25v0l-.38-.9-.4-.7.16-.3a2.18,2.18,0,0,1,.3-.27l.7-.23.4,0a13.34,13.34,0,0,1,3.24.46s.05,0,.08,0a14.3,14.3,0,0,1,2.75,1.1l0,0,1.37-.15,0-.1.37-1.22,0-.05c-.12-.38-.2-.73-.3-1.08l-.14-.66a7,7,0,0,1-.14-1.14l.08-.5,0,0h.06l.4,0a12.44,12.44,0,0,1,3.28,1.26,4.2,4.2,0,0,1,.93.7,2.93,2.93,0,0,1,.53.45,2.87,2.87,0,0,1,.6,1.12l.08.14,0,.2v0l.1.6-.47,0h0a8.5,8.5,0,0,0-2.35.35,6,6,0,0,0-.63.3,5.77,5.77,0,0,0-1.3.57s-.06.06-.1.08l-.08.05a4.1,4.1,0,0,0-.5.52,5.21,5.21,0,0,0-.9.92,3.71,3.71,0,0,0-.35,1,3.49,3.49,0,0,0-.34.92v.26a1.77,1.77,0,0,0,0,.2,3.24,3.24,0,0,0,.28,1.1,2.86,2.86,0,0,0,.12.35,16.21,16.21,0,0,1-2-.15c-.43-.07-.87-.13-1.22-.2l-.38,0c-.15,0-.35-.06-.5-.07l-.48,0-.1,0,0,0h0a4.93,4.93,0,0,0-1.3.16c-.08,0-.15.07-.24.1a4.45,4.45,0,0,0-.83.37l-.12.06c-.08.06-.12.14-.2.2a3.12,3.12,0,0,0-.58.57l-.16.2c0,.08-.13.15-.17.23s-.06.2-.12.3-.14.25-.18.37l-.06.3a5.8,5.8,0,0,0-.2,1.18v0a5.63,5.63,0,0,1-.9,2.1,2.78,2.78,0,0,1-2.1,1.47l-.44-.06-.44-.34a5.2,5.2,0,0,1-.67-1.67c-.15-.68-.23-1.28-.32-1.73Zm7,16.06.92-.94a2.9,2.9,0,0,0,.62-1.77,1.26,1.26,0,0,0-1.22-1.25c-1-.06-1.26-.34-1.5-.67l-.27-1.2v0a3.85,3.85,0,0,1,2.2-3c1-.5,2.55-1.2,3.7-1.8a1.22,1.22,0,0,0,.68-1.3,1.28,1.28,0,0,0-1-1.05,4.83,4.83,0,0,1-2.16-.9l-.67-1.15.16-.6.33-.48s0-.06.08-.08l.13-.05a1.94,1.94,0,0,1,.93-.2h.15l.62.07c.44,0,1,.14,1.7.23l.6.08a15.88,15.88,0,0,0,2,.14,12.15,12.15,0,0,0,1.44-.2,7.21,7.21,0,0,0,1.36-.2l0-.06.78-.88,0-.06,0-.06-.2-.4-.23-.67-.17-.1v0c-.17-.1-.27-.2-.4-.28a3,3,0,0,1-.52-.48l-.13-.14a1.15,1.15,0,0,1-.22-.55l0-.14a1,1,0,0,1,.06-.2,1.45,1.45,0,0,1,.2-.57A3.05,3.05,0,0,1,44,193a2,2,0,0,1,.26-.25,4.09,4.09,0,0,1,1-.47,3.34,3.34,0,0,1,.38-.16,5.58,5.58,0,0,1,1.6-.24h.09a5.77,5.77,0,0,1,1.27.2,6.79,6.79,0,0,1,1,.23l.53.2a18.69,18.69,0,0,1,1.76.78l.28.14.82.48a71,71,0,0,1,6.12,4.28l.42.35a8.15,8.15,0,0,0-2.76,1.1c-2.44,1.72-3,4.4-3.53,6.3a7.51,7.51,0,0,1-.9,2.2,1.59,1.59,0,0,1-1.36.65h-.18l-1-.22a6.57,6.57,0,0,1-1.45-1.2l-1.57-.2a3.55,3.55,0,0,0-1.5,2.1c-.3,1.08-.3,2.07-.52,2.78a2.16,2.16,0,0,1-1.37,1.55l-.47.08c-.5,0-1.26-.3-1.93-1.66l-1.2-.72a2.64,2.64,0,0,0-1.94.94,4.22,4.22,0,0,0-.75,2.36,7.64,7.64,0,0,1-.22,1.66l0,0a3.52,3.52,0,0,1-2.2,1.15,2.62,2.62,0,0,1-1.5-.33c-.18-.18-.34-.35-.36-1.07a1.8,1.8,0,0,1,.74-1.57m27.87,42.7a11.3,11.3,0,0,1,2-6.37,44.09,44.09,0,0,1,2.8-3.65,11.53,11.53,0,0,0,1.7-3.13,1.26,1.26,0,0,0-.48-1.54l-1.6.2-.54.56c-1,1-3.62,3.1-5.5,3.26l-1.35.06-1.3,0a10.18,10.18,0,0,0-5.13,1.3,7,7,0,0,1,1.37-1.65c1.17-1,2.9-1.72,5.4-3,2.15-1.14,3.92-1.68,5.76-3.8s2.23-3.7,3.53-5.56a8.05,8.05,0,0,0,.9-2.76A87.28,87.28,0,0,0,70,217a26.22,26.22,0,0,0-.4-5.48c-.54-2.2-.4-4.82-2.25-8.08a25.23,25.23,0,0,0-6.38-7,24.9,24.9,0,0,0,3.18.34c.15,0,.32.05.47.05a18.41,18.41,0,0,0,2.1-.17h.1c.24,0,.43-.12.64-.16a12.74,12.74,0,0,0,1.28-.3l.1-.1,0,0,.57-.6v-.07l0,0a18.54,18.54,0,0,0,.57-2.6c0-.26.07-.58.1-.9a20.68,20.68,0,0,0,.13-2.24h0l.1,0,1.07-.24c.05,0,.07-.08.12-.1l.13,0a3.85,3.85,0,0,0,.54-.53c.08-.1.18-.16.26-.26a4.09,4.09,0,0,0,.52-.85v61.44H73a11.73,11.73,0,0,0-5.88,1.36,12.36,12.36,0,0,0-3.73,3.43,24.73,24.73,0,0,0-2,3.3M7.07,192.87H20.23v.06a3.16,3.16,0,0,0,.48,1.65,7,7,0,0,0-3.2,5.35,3.69,3.69,0,0,0,1.82,3.24,4.54,4.54,0,0,0,2.43.7,5,5,0,0,0,3.3-1.36c.15-.1.2-.22.33-.33l.06.27a6.35,6.35,0,0,0,.86,1.73,3.25,3.25,0,0,0,1.82,1.27l1.08.14a3.92,3.92,0,0,0,1.46-.3,5.73,5.73,0,0,0-1.2,3.23v.06a5.07,5.07,0,0,0,.66,2.5,4,4,0,0,0,.72.7l-18.64,0a115,115,0,0,1-5.14-18.9m102.68,59.8a105.16,105.16,0,0,1-24.44,15.83,86.14,86.14,0,0,1-8,3.26l-.22.07V253.26l14.36,9.1,1.42-.07.45-1.35L89,246.51,102,237.05l.46-1.4a1.27,1.27,0,0,0-1.2-.86h-16l-6.18-18.54h57a99,99,0,0,1-26.3,36.4M75,118H0v49.2c0,45.16,18.5,72.9,37.08,89.07s37,21,37.23,21l.6.16.6-.16c.2-.06,18.7-4.85,37.32-21s37.2-43.9,37.18-89.06V118Z"/><path class="cls-1" d="M120.09,171.11a1.26,1.26,0,0,0-1.2.88,3.13,3.13,0,0,1-2,1.66,7.3,7.3,0,0,0-2.74,1.87,5.54,5.54,0,0,0-1.46,3.7,6.13,6.13,0,0,0,1.54,3.8,18.78,18.78,0,0,0,1.7,1.8l.08.18-.23.5-.18.25-.77.22-.25-.15a23.78,23.78,0,0,0-1.18-2.17,6.21,6.21,0,0,0-3.14-2.65,5.54,5.54,0,0,0-1.63-.26,6.53,6.53,0,0,0-5,2.55,3.29,3.29,0,0,1-2.2,1.4h0a1.26,1.26,0,0,0-1.2.87l.5,1.4a3.14,3.14,0,0,1,.94,2.42,6.88,6.88,0,0,0,.93,3.2,5.46,5.46,0,0,0,3,2.53l1.53.23a7.83,7.83,0,0,0,3.12-.75c.83-.37,1.54-.78,1.67-.83l.14,0,.4.3.23.36v0l0,.3-.1.52-.18.13a21.18,21.18,0,0,0-2.42.45,6.34,6.34,0,0,0-3.5,2.18,5.53,5.53,0,0,0-1,3.2,7,7,0,0,0,1.15,3.78,3.84,3.84,0,0,1,.72,2l-.1.5.47,1.42h1.48a2.15,2.15,0,0,1,1.32-.36l1.27.2a7.3,7.3,0,0,0,1.87.24,5.78,5.78,0,0,0,4.8-2.28,5.9,5.9,0,0,0,1-3.53,17.32,17.32,0,0,0-.32-2.9v-.07l.3-.33.45-.15H120l.66.2.22.28v.06a20,20,0,0,0-.33,2.9,5.93,5.93,0,0,0,1,3.54,5.73,5.73,0,0,0,4.8,2.28,7.21,7.21,0,0,0,1.86-.25l1.26-.18a2.2,2.2,0,0,1,1.32.35h1.5l.44-1.4-.08-.5a3.78,3.78,0,0,1,.73-2,7,7,0,0,0,1.15-3.76,5.49,5.49,0,0,0-1-3.2,6.25,6.25,0,0,0-3.48-2.2,21.4,21.4,0,0,0-2.42-.44l-.2-.12-.1-.5,0-.3.32-.5.32-.22.13,0c.15.07.85.48,1.68.85a7.84,7.84,0,0,0,3.13.75l1.54-.23a5.54,5.54,0,0,0,3.05-2.54,7,7,0,0,0,.9-3.2,3.08,3.08,0,0,1,1-2.4l.47-1.42a1.27,1.27,0,0,0-1.2-.86h0a3.14,3.14,0,0,1-2.15-1.4,6.62,6.62,0,0,0-5-2.55,5.49,5.49,0,0,0-1.64.25,6.15,6.15,0,0,0-3.15,2.65c-.63,1-1,2-1.16,2.17l-.26.16-.55-.13-.16-.06-.48-.8.1-.17c.1-.15.94-.87,1.68-1.8a6.16,6.16,0,0,0,1.53-3.8,5.44,5.44,0,0,0-1.45-3.7,7.15,7.15,0,0,0-2.73-1.87,3.11,3.11,0,0,1-2-1.66,1.26,1.26,0,0,0-1.2-.88Zm0,3.42a6.87,6.87,0,0,0,2.33,1.47,4.48,4.48,0,0,1,1.74,1.2,3.06,3.06,0,0,1,.82,2,3.82,3.82,0,0,1-1,2.25c-.6.74-1.2,1.25-1.62,1.7a2.72,2.72,0,0,0-.7,1.83,3.85,3.85,0,0,0,1.36,2.72l0,0,.05.05.13.07a4.06,4.06,0,0,0,2.1.6,2.71,2.71,0,0,0,2.42-1.38c.3-.52.6-1.27,1.1-2.07a3.93,3.93,0,0,1,1.84-1.64l.85-.13a4.07,4.07,0,0,1,3,1.6,6.86,6.86,0,0,0,2.1,1.78,7.23,7.23,0,0,0-.65,2.67,4.63,4.63,0,0,1-.6,2,2.92,2.92,0,0,1-1.66,1.42l-.75.1a5.36,5.36,0,0,1-2.1-.54c-.7-.3-1.22-.62-1.68-.83l-1.14-.25a3,3,0,0,0-2.35,1.25,4.4,4.4,0,0,0-.65,1.08l-.06.2a6,6,0,0,0-.1,1,3.52,3.52,0,0,0,.37,1.66,2.65,2.65,0,0,0,1.85,1.4c.6.13,1.4.18,2.3.43a3.76,3.76,0,0,1,2.13,1.23,2.93,2.93,0,0,1,.54,1.74,4.59,4.59,0,0,1-.73,2.38,6.08,6.08,0,0,0-1,2.58,6.39,6.39,0,0,0-.84-.1,7.83,7.83,0,0,0-1.95.27l-1.17.16a3.26,3.26,0,0,1-2.77-1.25,3.42,3.42,0,0,1-.53-2,18.76,18.76,0,0,1,.32-2.68v-.3a2.83,2.83,0,0,0-1.78-2.6,5.7,5.7,0,0,0-1.47-.4H120a5.5,5.5,0,0,0-1.47.4,2.89,2.89,0,0,0-1.76,2.6l0,.3a22.52,22.52,0,0,1,.3,2.68,3.55,3.55,0,0,1-.52,2.06,3.31,3.31,0,0,1-2.77,1.26l-1.18-.16a7.47,7.47,0,0,0-2-.28,6.81,6.81,0,0,0-.82.1,6.73,6.73,0,0,0-1-2.57,4.5,4.5,0,0,1-.73-2.38,2.85,2.85,0,0,1,.54-1.74,3.76,3.76,0,0,1,2.12-1.24c.9-.26,1.7-.3,2.3-.43a2.77,2.77,0,0,0,1.87-1.4,3.59,3.59,0,0,0,.37-1.68,6,6,0,0,0-.1-1l-.06-.2a5.17,5.17,0,0,0-.66-1.07,3,3,0,0,0-2.34-1.25l-1.14.25c-.47.2-1,.53-1.68.83a5.45,5.45,0,0,1-2.1.54l-.77-.1a3,3,0,0,1-1.66-1.43,4.59,4.59,0,0,1-.58-2,6.53,6.53,0,0,0-.67-2.67,6.13,6.13,0,0,0,2.1-1.8,4.26,4.26,0,0,1,3-1.58l.85.14a3.73,3.73,0,0,1,1.82,1.63c.52.8.82,1.55,1.12,2.07a2.69,2.69,0,0,0,2.4,1.38,4.44,4.44,0,0,0,2.16-.63l.17-.13a3.87,3.87,0,0,0,1.37-2.72,2.84,2.84,0,0,0-.7-1.83,19.91,19.91,0,0,1-1.63-1.7,3.85,3.85,0,0,1-1-2.25,3,3,0,0,1,.83-2,4.59,4.59,0,0,1,1.74-1.2,6.7,6.7,0,0,0,2.32-1.46Zm.37,13.78a3,3,0,0,1,1.47,2.55,2.92,2.92,0,0,1-2.93,2.93,3,3,0,0,1-2.54-1.46,3.6,3.6,0,1,0,4-4Z"/><path class="cls-1" d="M422.54,242.21a8.32,8.32,0,0,0-1.12,0,9.86,9.86,0,0,0-7.36,4.06,9.34,9.34,0,0,0-1,8.1,10.61,10.61,0,0,0,5.8,6c2.4,1.15,5.06,1.9,7.28,3.44a6.33,6.33,0,0,1,2.86,6.3,5.94,5.94,0,0,1-4.7,4.9,8.57,8.57,0,0,1-7.9-2.2,9.81,9.81,0,0,1-2.3-3.94c-.2-.64-.55-4-2-2.95-.52.4-.43,1.17-.38,1.73.06.8.08,1.63.1,2.44a34.37,34.37,0,0,1-.23,4.53c-.06.63.13,1.83,1.07,1.5.6-.22.85-1.07,1.18-1.57a30.75,30.75,0,0,0,4,2.05,13,13,0,0,0,4.46.77,13.23,13.23,0,0,0,8.4-2.78,9.63,9.63,0,0,0,3.55-7.3,9.75,9.75,0,0,0-2.64-7c-.3-.3-.6-.6-.92-.87-2.5-2.12-5.6-3.3-8.53-4.65-2.38-1.1-5.3-2.48-5.3-5.5a5.23,5.23,0,0,1,4.3-4.95,7.31,7.31,0,0,1,7.2,2.67,18.05,18.05,0,0,1,1.86,4.1c.24.55.68,1.07,1.3.72s.55-1.06.56-1.62c0-1.76-.17-3.52,0-5.28a3.4,3.4,0,0,0-.16-1.9.8.8,0,0,0-1.36-.13,4.18,4.18,0,0,0-.77,1.7,26.51,26.51,0,0,0-4-1.94,11.19,11.19,0,0,0-3.3-.5Zm83.26.5c-1,0-1.94.06-2.9.1-2.3.1-4.6.14-6.9.18-3.37,0-6.76.06-10.14,0-2.55,0-5.1-.08-7.63-.17-1.2-.05-2.4-.13-3.6-.15-.8,0-1.73.05-1.92,1a13.89,13.89,0,0,0,0,2.58c0,.92,0,1.84,0,2.77,0,.55-.13,1.65.52,1.92s.84-.18.93-.6a11.68,11.68,0,0,1,.8-3.23c1.34-2.42,5.2-2.1,7.52-2.1.76,0,1.52,0,2.3,0a4.34,4.34,0,0,1,1.82.2c.62.3.67,1,.7,1.63.07,3.52.07,17.8.07,21.43a14,14,0,0,1-.34,4.58c-.43,1.2-1.68,1.52-2.82,1.68a3.28,3.28,0,0,0-1.75.44.91.91,0,0,0,.23,1.55,4.59,4.59,0,0,0,2.18,0c.9-.06,1.8-.1,2.7-.1,1.87-.06,3.73-.06,5.58,0,.9,0,1.78.1,2.66.17.68.07,1.72.2,2.22-.4,1.23-1.5-2.1-1.65-2.76-1.82a2.73,2.73,0,0,1-2.25-2.87c-.1-1.72-.1-3.46-.1-5.18,0-3.65,0-18.1.06-19.15,0-.83-.07-1.52.85-1.83a13.64,13.64,0,0,1,4.46-.3,19.62,19.62,0,0,1,4.33.32,3.71,3.71,0,0,1,2.93,2.36A13.37,13.37,0,0,1,506,250c.12.7.86,1.53,1.37.57a5.83,5.83,0,0,0,.13-2.5v-2.7a4.25,4.25,0,0,0-.2-2.13c-.3-.48-.95-.52-1.47-.52ZM384,242.84c-2.7,0-5.8.23-9.3.23-.9,0-1.76,0-2.63,0a6.83,6.83,0,0,0-1.63,0,1.34,1.34,0,0,0-.6.26.87.87,0,0,0,0,1.17,2.31,2.31,0,0,0,1.22.38c.3,0,.62.08.95.14a2.31,2.31,0,0,1,2,1.43,7.4,7.4,0,0,1,.26,2.37v21.66a8.15,8.15,0,0,1-.23,2.43c-.4,1.22-1.78,1.5-2.9,1.64a2.87,2.87,0,0,0-1,.24,1,1,0,0,0-.5,1.16c.16.47.76.62,1.2.65a8.79,8.79,0,0,0,1.54-.1l1.55-.07c1.05,0,2.12-.06,3.18-.06s2.12,0,3.18.06l1.8.12a6.24,6.24,0,0,0,1.78,0,1,1,0,0,0,.23-1.8,2.34,2.34,0,0,0-.75-.16,8,8,0,0,1-2-.44,2.06,2.06,0,0,1-1.15-1.24,7.77,7.77,0,0,1-.24-2.43v-9l.68,0a2.24,2.24,0,0,1,2,1l10.53,13.2a2.5,2.5,0,0,0,2.35.9l2.3-.05c.8,0,1.62,0,2.43.07.64.05,1.76.33,2.25-.22s0-1.23-.47-1.48-.74-.33-1.12-.5a8.26,8.26,0,0,1-3.1-2.16l-10-11.7.9-.2c3.3-.72,6.38-2.57,7.3-6s.25-7.44-2.76-9.48c-2-1.38-5.18-2-9.3-2Zm134.07,0a1.51,1.51,0,0,0-1.4.7c-.64,1.23,1.33,1.5,2,1.7a4.41,4.41,0,0,1,2.62,2.56c.7,1.33,1.4,2.66,2.13,4q2.32,4.17,4.63,8.35c.34.6.67,1.2,1,1.8a3.83,3.83,0,0,1,.76,1.65,26.15,26.15,0,0,1,0,2.8V271c0,1.1,0,2.37-1.07,3a4,4,0,0,1-1.9.52c-.57,0-1.23.05-1.56.58a1,1,0,0,0,.36,1.4,3.32,3.32,0,0,0,1.9.07c.93-.1,1.86-.12,2.8-.14,1.92-.05,3.87-.06,5.8,0,.83,0,1.66.14,2.5.16.5,0,1.2,0,1.46-.53.5-1-.66-1.4-1.38-1.56-.94-.2-2-.16-2.62-1s-.58-2.25-.58-3.34c0-2.17-.1-4.37,0-6.53a4.51,4.51,0,0,1,1.12-2.23c.55-.8,1.06-1.63,1.57-2.45,1-1.66,2.05-3.33,3-5s2-3.36,2.93-5c.83-1.44,1.62-3,3.18-3.75a11.33,11.33,0,0,0,1.82-.78,1,1,0,0,0,.42-.84.63.63,0,0,0-.34-.48,2.88,2.88,0,0,0-1.62-.06c-1,.08-1.93.13-2.9.13-1.46,0-2.94-.25-4.38-.15-.74.06-2.16.63-1.23,1.56.67.66,1.87.34,2.62.92,1.1.85.22,2.7-.27,3.65-1.68,3.3-3.67,6.44-5.6,9.6a26.45,26.45,0,0,1-1.46,2.4,44.86,44.86,0,0,1-2.2-4.25l-2.2-4.26-2-3.9c-.48-.88-1.22-2.17-.54-3.13s2-.4,3-1a.87.87,0,0,0,.25-1.3c-.4-.5-1.15-.4-1.72-.4-3.07,0-6.15.36-9.22.08a12.92,12.92,0,0,0-1.68-.13Zm-278.4,0a2.09,2.09,0,0,0-.6.1.9.9,0,0,0-.24,1.56c.56.37,1.3.2,1.93.38a2.68,2.68,0,0,1,1.48.92,5.64,5.64,0,0,1,.83,3.56v18.86L223.69,244a2.19,2.19,0,0,0-1.9-.93c-.82,0-1.75.08-2.77.08-.8,0-1.6-.1-2.4-.13a10.42,10.42,0,0,0-1.58,0c-.52,0-1,.23-1.1.77-.18.73.43,1,1.07,1.14a6.7,6.7,0,0,1,2,.53,4.85,4.85,0,0,1,1.84,1.67l.12.17v22.4a10.34,10.34,0,0,1-.27,2.88,2.59,2.59,0,0,1-1.32,1.58l-.8.3h0l-.88.17c-.67.13-1.63.62-1.12,1.44s1.9.54,2.63.5c.9,0,1.78-.1,2.67-.1,1,0,2.08,0,3.1.1a6.19,6.19,0,0,0,1.72,0c1-.2,1.4-1.5.23-1.84a10.52,10.52,0,0,1-1.93-.5,3,3,0,0,1-1.54-1.64,8.36,8.36,0,0,1-.33-2.86v-20l20.82,25.9c.32.4.66.77,1,1.15.56.6,1.9.78,2.24-.18a2.82,2.82,0,0,0,.1-1V249.45a9,9,0,0,1,.26-2.66,2.37,2.37,0,0,1,1.32-1.47s.83-.3.87-.3c.6-.1,1.82-.2,2-.88a.9.9,0,0,0-.17-.85.79.79,0,0,0-.44-.25,3,3,0,0,0-.85,0c-.3,0-.6,0-.9,0-.86.05-1.73.08-2.6.08-1.08,0-2.14-.06-3.22-.14l-1.22-.08c-.18,0-.4,0-.6,0Zm35.94,0c-.66,0-1.36.13-1.8.15-2.7.12-5.43.12-8.15,0l-2.05-.1a3.51,3.51,0,0,0-1.76.17.85.85,0,0,0-.47,1.2c.25.38.76.4,1.16.45a5.85,5.85,0,0,1,3,.77,3.22,3.22,0,0,1,.9,2.53v22.37c0,1.45-.08,3.1-1.68,3.7a12.36,12.36,0,0,1-2.4.44,1.2,1.2,0,0,0-1,.65c-.7,1.6,1.72,1.3,2.53,1.26s1.88-.1,2.82-.12c1.88-.05,3.76,0,5.64,0,.9,0,1.8.07,2.7.14.67.06,1.6.18,2.06-.45a.84.84,0,0,0-.3-1.22,1,1,0,0,0-.43-.2c-.8-.2-1.66-.2-2.47-.46-1.7-.55-1.82-2.22-1.82-3.75V248.82a6.06,6.06,0,0,1,.4-2.68c.57-1.07,1.8-1.1,2.83-1.27.6-.1,2.46-.36,1.83-1.4a1.77,1.77,0,0,0-1.57-.56Zm185.82,0c-.67,0-1.37.13-1.8.15-2.72.12-5.43.12-8.15,0l-2.07-.1a3.51,3.51,0,0,0-1.76.17.86.86,0,0,0-.46,1.2c.25.38.76.4,1.16.45a5.79,5.79,0,0,1,3,.77,3.18,3.18,0,0,1,.9,2.53v22.37c0,1.45-.07,3.1-1.68,3.7a12.36,12.36,0,0,1-2.4.44,1.21,1.21,0,0,0-1,.65c-.7,1.6,1.73,1.3,2.53,1.26s1.87-.1,2.8-.12c1.9-.05,3.77,0,5.65,0,.9,0,1.8.07,2.7.14.67.06,1.6.18,2.06-.45a.83.83,0,0,0-.27-1.22,1.23,1.23,0,0,0-.44-.2c-.83-.2-1.68-.2-2.48-.46-1.7-.55-1.83-2.22-1.83-3.75V248.82a6.06,6.06,0,0,1,.4-2.68c.56-1.07,1.78-1.1,2.83-1.27.6-.1,2.45-.36,1.82-1.4a1.79,1.79,0,0,0-1.57-.56Zm-280.7,0c-.93,0-2,.16-2.42.18-1.82,0-3.63.06-5.45,0-1.14,0-2.3-.06-3.43-.13-.75,0-2.3-.08-2,1.1.25,1,1.82.77,2.58,1a2.46,2.46,0,0,1,2,2.34,28.79,28.79,0,0,1,.06,2.94V265c0,.94,0,1.9,0,2.83a9.69,9.69,0,0,0,3.13,6.85c4,3.33,10.33,3.3,15.07,2.12a9.68,9.68,0,0,0,7.13-6.2,25.37,25.37,0,0,0,1.1-8.67V248.83a5.31,5.31,0,0,1,.5-2.88c.53-.8,1.4-.84,2.28-.95.63-.08,1.72-.18,1.87-1a.9.9,0,0,0,0-.5c-.28-.62-1.45-.54-2-.5a58,58,0,0,1-7.1,0c-.76-.05-2.53-.13-2.14,1.14.27.88,1.54.68,2.24.82a2.91,2.91,0,0,1,1.85,1,5,5,0,0,1,.54,2.88V263.9c0,4.26-1.22,8.68-5.66,10.17-3.76,1.26-9.66,1.18-11.92-2.65-1.33-2.26-1.23-4.94-1.23-7.47V248.82c0-1.16,0-2.74,1.12-3.44.87-.52,3.38-.1,3.53-1.46.1-.76-.72-1-1.66-1Zm152,0c-.72,0-1.6,0-1.7.77s.86,1.12,1.5,1.2a4.82,4.82,0,0,1,2.12.5c1.14.74,1,2.3,1,3.47v21.52c0,1.1.1,2.58-.85,3.35s-2.15.47-3.18.92a1,1,0,0,0-.3,1.65c.67.5,1.77.14,2.53.1l2.7-.1c1.76,0,3.53,0,5.3,0q4.11,0,8.23.08l4.95.1c.85,0,2.5.3,3.15-.25.34-.3.32-.9.33-1.3,0-.9.05-1.8.1-2.7s.6-4-.62-4.24h-.18c-.77,0-.9,1.12-1,1.66a6.49,6.49,0,0,1-.92,2.1,5.49,5.49,0,0,1-3.2,2.1,17.68,17.68,0,0,1-4.22.42,18.14,18.14,0,0,1-4.1-.28,3.5,3.5,0,0,1-2.33-1.5,6.71,6.71,0,0,1-.67-3.37c0-1.48,0-3,0-4.45V260c2.1,0,4.76-.1,6.28,1.62a5.47,5.47,0,0,1,1.08,2.17c.14.5.18,1.4.72,1.7.75.38,1.1-.64,1.13-1.2.05-1.56-.23-3.2-.28-4.77s0-3.3.15-4.94a6.13,6.13,0,0,0,0-2.3.76.76,0,0,0-1.32-.32,3,3,0,0,0-.45,1.35,7.13,7.13,0,0,1-.52,1.8c-1.13,2.4-4,2.65-6.3,2.82a3.58,3.58,0,0,0-.45,0c-.07-2.35,0-4.7,0-7.05,0-1.16-.05-2.33,0-3.5,0-.68-.2-2,.66-2.25a13.29,13.29,0,0,1,3.15-.12c1,0,2,0,3,.1a7.67,7.67,0,0,1,4.66,1.4,4.22,4.22,0,0,1,1.4,2.37c.14.68.3,2.43,1.46,1.93.94-.4.37-2.1.32-2.82-.08-1.2.13-2.36.1-3.55,0-1-.62-1.3-1.5-1.4a27.54,27.54,0,0,0-3.27-.1l-7.18.1c-2.43,0-4.85.08-7.27,0-1.2,0-2.37-.07-3.55-.14-.17,0-.4,0-.64,0Zm-44.16,0c-.25,0-.5,0-.74,0-.7.07-1.3.55-.92,1.3s1.7.73,2.37.86c2,.4,2.5,2.45,3.1,4.1l5.1,13.43c.87,2.25,1.72,4.5,2.58,6.76l1.28,3.36a29.83,29.83,0,0,0,1.23,3.1c.4.82,1.17,1.78,2.1,1.07a5.27,5.27,0,0,0,1.34-2c.55-1.17,1.05-2.4,1.53-3.6l.83-2.07,2-4.9,2.35-5.87c.7-1.7,1.37-3.4,2.05-5.1.34-.84.67-1.7,1-2.57a26.86,26.86,0,0,1,1.8-3.84,4.68,4.68,0,0,1,1.3-1.52,6.21,6.21,0,0,1,2-.64c.76-.22,1.4-1.3.43-1.75a.84.84,0,0,0-.14-.06,5.17,5.17,0,0,0-2,0c-.77.05-1.55.1-2.32.1a37,37,0,0,1-3.94-.13c-.67,0-1.6-.3-2.2.15a.81.81,0,0,0,.07,1.34,7,7,0,0,0,2,.45c1.42.32,1.77,1.44,1.48,2.76a27.8,27.8,0,0,1-1.28,4c-.43,1.16-.88,2.3-1.33,3.43l-1.75,4.43-1.8,4.54-1.5,3.68c-.15.4-.3.82-.48,1.23-.05.13-.14.58-.27.67l0,.08-.65-1.8-1.57-4.33-1.9-5.23-1.65-4.56-.84-2.3c-.36-1-.75-2.1-1.1-3.16-.27-.88-.75-2.15,0-2.94s1.7-.44,2.54-.63,1.36-1.3.45-1.78a2.69,2.69,0,0,0-1.26-.1c-.6.05-1.2.1-1.78.1-1.22.07-2.43.1-3.64.1s-2.4,0-3.6-.06c-.74,0-1.5-.17-2.26-.2Zm93.9,1.7a11.12,11.12,0,0,1,3.32.5,6.25,6.25,0,0,1,4.38,5.6c.3,2.58,0,5.67-2.38,7.22-2.1,1.37-4.85,1.42-7.26,1.42-.13,0-.42.06-.5,0s0-.57,0-.7c0-.48,0-1,0-1.47v-2.94c0-2,0-3.93,0-5.9,0-.83,0-1.68.05-2.5s.6-1.08,1.34-1.15a10.24,10.24,0,0,1,1.1-.05Z"/></g></g></svg>