<svg xmlns="http://www.w3.org/2000/svg" viewBox="0 0 510.73 146.45"><defs><style>.cls-1{fill:#939598;}.cls-2{fill:#fff;}.cls-3{fill:#333132;}.cls-4{fill:#bcbec0;}</style></defs><g id="Capa_2" data-name="Capa 2"><g id="Layer_1" data-name="Layer 1"><path class="cls-1" d="M.09,77.34,60.64,31.28l8.63,5.49L95.06,16l47.07,36A72.72,72.72,0,0,0,0,73.74Q0,75.56.09,77.34Z"/><path class="cls-2" d="M142.13,52,95.06,16,69.27,36.77l-8.63-5.49L.09,77.34l0,.52,4.82,1.65,18,6.18L44.16,73.84,58.8,65.66l8.35,4.85,5.56,3.23L84.45,68l27.09-13.23,30.65-2.53Z"/><path class="cls-3" d="M144,59.38a71,71,0,0,0-1.81-7.14l-30.65,2.53L84.45,68,72.71,73.74l-5.56-3.23L58.8,65.66,44.16,73.84,22.93,85.69l-18-6.18L.12,77.86c.05.78.11,1.55.18,2.33a72.59,72.59,0,0,0,13.79,36.56l32.52,5.08,23.56-13.41,35.7-1.89,17.54-25.94.33-.49L145,66Q144.66,62.65,144,59.38Z"/><path class="cls-4" d="M145,66,123.74,80.1l-.33.49-17.54,25.94-35.7,1.89L46.61,121.83l-32.52-5.08A72.7,72.7,0,0,0,145.23,78.87c.12-1.7.2-3.4.2-5.13A75.89,75.89,0,0,0,145,66Z"/><path class="cls-2" d="M179.25,54.65V.57h11.24V54.65Z"/><path class="cls-2" d="M244.48,54.65,221,24.62c-2-2.63-3.53-4.76-5.17-7.14h-.16c.16,1.8.16,5.09.16,7.55V54.65H204.68V.57H216l22.65,28.89c2.13,2.7,3.61,4.84,5.08,7h.17c-.17-2.54-.17-6.07-.17-8.37V.57H254.9V54.65Z"/><path class="cls-2" d="M304.21,54.65,299,41.44H280.58l-5,13.21H264.5L285.67.33h8.53l22.08,54.32ZM291.82,21.91a59,59,0,0,1-2-6.65h-.08a42,42,0,0,1-2,6.49l-4,10.66h11.74Z"/><path class="cls-2" d="M325.87,54.65V.57h11.24V54.65Z"/><path class="cls-2" d="M376.42,55.47C359.27,55.47,349,43.32,349,28.14,349,12.39,361.23,0,379.7,0a47.2,47.2,0,0,1,16.24,2.71l-.16,10.17a31.56,31.56,0,0,0-14.69-3.77c-14.36,0-19.86,8.7-19.86,18.21,0,10.43,6.82,19.12,18.06,19.12a21.78,21.78,0,0,0,8-1.31V27h11.24V50.14A46.65,46.65,0,0,1,376.42,55.47Z"/><path class="cls-2" d="M411.78,54.65V.57h31.34l-2.95,9.19H423V22.4h17.23v9.27H423V45.46h20v9.19Z"/><path class="cls-2" d="M499.57,54.65V24.78c0-2,0-3.94.17-5.83h-.17a44.65,44.65,0,0,1-3.36,5.67L486.2,40H481L469.87,24.21A36.35,36.35,0,0,1,466.42,19h-.16c.08,2.06.08,3.94.08,5.5v30.2H455.18V.57h10.34l14.19,20.27a61.52,61.52,0,0,1,3.94,6.07h.09a51.44,51.44,0,0,1,3.69-6.4l13-19.94h10.34V54.65Z"/><path class="cls-2" d="M179.13,69.05h1.75V85.93h-1.75Z"/><path class="cls-2" d="M185.17,69.05h1.77l7.34,13.35h.05V69.05h1.56V85.93h-1.54L186.78,72h-.05V85.93h-1.56Z"/><path class="cls-2" d="M199,84l1.16-1.2a5.74,5.74,0,0,0,4.38,1.86,2.9,2.9,0,0,0,3.21-2.91c0-1.87-1.3-2.67-2.62-3.31l-2.13-1c-2-.92-3.17-2.34-3.17-4.26,0-2.46,1.87-4.42,4.8-4.42a5.81,5.81,0,0,1,4.66,1.94l-1.11,1.11a4.85,4.85,0,0,0-3.67-1.56A2.6,2.6,0,0,0,201.62,73c0,1.37.8,2.16,2.41,2.91l2,1c2.2,1.07,3.53,2.46,3.53,4.64,0,2.79-2.15,4.73-5.18,4.73A6.9,6.9,0,0,1,199,84Z"/><path class="cls-2" d="M216.15,70.54h-4.81V69.05h11.32v1.49H217.9V85.93h-1.75Z"/><path class="cls-2" d="M225.62,69.05h1.75V85.93h-1.75Z"/><path class="cls-2" d="M235.15,70.54h-4.8V69.05h11.31v1.49h-4.75V85.93h-1.76Z"/><path class="cls-2" d="M244.5,81.22V69.05h1.76V81A3.4,3.4,0,0,0,250,84.72a3.34,3.34,0,0,0,3.62-3.64v-12h1.68V81.12c0,3.22-2.27,5.09-5.44,5.09C247,86.21,244.5,84.82,244.5,81.22Z"/><path class="cls-2" d="M262.94,70.54h-4.8V69.05h11.31v1.49h-4.76V85.93h-1.75Z"/><path class="cls-2" d="M271.53,81.12v-7c0-3.4,2.32-5.34,5.54-5.34s5.54,1.61,5.54,5v7c0,3.5-2.37,5.37-5.54,5.37S271.53,84.63,271.53,81.12Zm9.3-.14V73.81c0-2.2-1.44-3.53-3.83-3.53s-3.69,1.47-3.69,3.84V81a3.42,3.42,0,0,0,3.78,3.64A3.46,3.46,0,0,0,280.83,81Z"/><path class="cls-2" d="M291.89,69.05h1.77L301,82.4h.05V69.05h1.56V85.93h-1.54L293.5,72h-.05V85.93h-1.56Z"/><path class="cls-2" d="M310.75,69h2.11l5,16.92h-1.77l-1.54-5.33h-5.66l-1.56,5.33h-1.66Zm3.38,10.2-2.41-8.38h0l-2.46,8.38Z"/><path class="cls-2" d="M320.17,81.24V73.79c0-3,2.25-5,5.51-5,3,0,5,1.8,5,4.28v1.3h-1.58v-.94c0-1.8-1.14-3.17-3.53-3.17a3.38,3.38,0,0,0-3.67,3.64V81c0,2.6,1.54,3.69,3.74,3.69s3.46-1.25,3.46-3V80.6h1.58v1.26c0,2.65-2,4.35-5,4.35S320.17,84.58,320.17,81.24Z"/><path class="cls-2" d="M334.51,69.05h1.76V85.93h-1.76Z"/><path class="cls-2" d="M340.1,81.12v-7c0-3.4,2.32-5.34,5.54-5.34s5.53,1.61,5.53,5v7c0,3.5-2.36,5.37-5.53,5.37S340.1,84.63,340.1,81.12Zm9.3-.14V73.81c0-2.2-1.44-3.53-3.83-3.53s-3.7,1.47-3.7,3.84V81a3.43,3.43,0,0,0,3.79,3.64A3.46,3.46,0,0,0,349.4,81Z"/><path class="cls-2" d="M355,69.05h1.77l7.34,13.35h.05V69.05h1.56V85.93h-1.54L356.62,72h-.05V85.93H355Z"/><path class="cls-2" d="M373.87,69H376l5,16.92H379.2l-1.54-5.33H372l-1.56,5.33h-1.65Zm3.39,10.2-2.42-8.38h0l-2.46,8.38Z"/><path class="cls-2" d="M384,69.05h1.75V84.41h7.41v1.52H384Z"/><path class="cls-2" d="M401.92,69.05h5.44c3,0,5.09,1.49,5.09,4.64V81c0,3.22-2.11,4.9-5.09,4.9h-5.44Zm5.21,15.39A3.21,3.21,0,0,0,410.68,81v-7.1a3.17,3.17,0,0,0-3.51-3.39h-3.5v13.9Z"/><path class="cls-2" d="M416.31,69.05h9.16v1.52h-7.41v5.87H424v1.49h-5.89v6.48h7.41v1.52h-9.16Z"/><path class="cls-2" d="M179.13,99h1.75v16.88h-1.75Z"/><path class="cls-2" d="M185.17,99h1.77l7.34,13.35h.05V99h1.56v16.88h-1.54L186.78,102h-.05v13.94h-1.56Z"/><path class="cls-2" d="M198.89,99h1.8l4,14.72h0l4-14.72h1.64l-4.79,17h-1.86Z"/><path class="cls-2" d="M213.36,99h9.15v1.52h-7.4v5.87H221v1.49h-5.89v6.48h7.4v1.52h-9.15Z"/><path class="cls-2" d="M224.41,114l1.16-1.2a5.74,5.74,0,0,0,4.38,1.86,2.91,2.91,0,0,0,3.22-2.91c0-1.87-1.31-2.67-2.63-3.31l-2.13-1c-2-.92-3.17-2.34-3.17-4.26,0-2.46,1.87-4.42,4.8-4.42a5.81,5.81,0,0,1,4.66,1.94l-1.11,1.11a4.85,4.85,0,0,0-3.67-1.56A2.6,2.6,0,0,0,227,103c0,1.37.8,2.16,2.41,2.91l2,.95c2.21,1.07,3.53,2.46,3.53,4.64,0,2.79-2.15,4.73-5.18,4.73A6.9,6.9,0,0,1,224.41,114Z"/><path class="cls-2" d="M241.57,100.52h-4.81V99h11.32v1.49h-4.76v15.39h-1.75Z"/><path class="cls-2" d="M251,99h1.75v16.88H251Z"/><path class="cls-2" d="M256.62,111.22v-7.36c0-3,2.3-5.13,5.52-5.13s5.15,1.79,5.15,4.28v1.21h-1.6v-1c0-1.76-1.35-3.06-3.58-3.06a3.52,3.52,0,0,0-3.74,3.74v7.17c0,2.28,1.4,3.6,3.79,3.6,2.63,0,3.55-1.44,3.55-3.19v-2.94h-3.53v-1.4h5.19v4.55c0,2.63-2,4.47-5.23,4.47S256.62,114.56,256.62,111.22Z"/><path class="cls-2" d="M274.94,99h2.11l5,16.92h-1.77l-1.54-5.33h-5.66l-1.56,5.33h-1.66Zm3.38,10.2-2.41-8.38h0l-2.46,8.38Z"/><path class="cls-2" d="M284.36,111.22v-7.45c0-3,2.25-5,5.52-5,3,0,5,1.8,5,4.28v1.3h-1.59v-.94c0-1.8-1.14-3.17-3.53-3.17a3.38,3.38,0,0,0-3.66,3.64V111c0,2.6,1.53,3.69,3.74,3.69s3.45-1.25,3.45-3v-1.12h1.59v1.26c0,2.65-2,4.35-5,4.35C286.7,116.19,284.36,114.56,284.36,111.22Z"/><path class="cls-2" d="M298.7,99h1.76v16.88H298.7Z"/><path class="cls-2" d="M304.29,111.1v-7c0-3.4,2.32-5.34,5.54-5.34s5.53,1.61,5.53,5v7c0,3.5-2.36,5.37-5.53,5.37S304.29,114.61,304.29,111.1Zm9.3-.14v-7.17c0-2.2-1.44-3.53-3.83-3.53s-3.7,1.47-3.7,3.84V111a3.43,3.43,0,0,0,3.79,3.64A3.46,3.46,0,0,0,313.59,111Zm-2.53-16.64h1.75l-2.53,3.46H309Z"/><path class="cls-2" d="M319.2,99H321l7.33,13.35h.05V99h1.56v16.88h-1.54L320.81,102h-.05v13.94H319.2Z"/><path class="cls-2" d="M339.63,99h9.15v1.52h-7.4v5.87h5.89v1.49h-5.89v6.48h7.4v1.52h-9.15Z"/><path class="cls-2" d="M352.41,99h1.77l7.34,13.35h.05V99h1.56v16.88h-1.54L354,102h0v13.94h-1.56Z"/><path class="cls-2" d="M372.38,111.22v-7.36c0-3,2.3-5.13,5.52-5.13s5.16,1.79,5.16,4.28v1.21h-1.61v-1c0-1.76-1.35-3.06-3.58-3.06a3.52,3.52,0,0,0-3.74,3.74v7.17c0,2.28,1.4,3.6,3.79,3.6,2.63,0,3.55-1.44,3.55-3.19v-2.94h-3.53v-1.4h5.19v4.55c0,2.63-2,4.47-5.23,4.47S372.38,114.56,372.38,111.22Z"/><path class="cls-2" d="M387.1,99h1.76v15.36h7.4v1.52H387.1Z"/><path class="cls-2" d="M403.48,99h2.11l5,16.92h-1.77l-1.54-5.33h-5.66l-1.56,5.33h-1.66Zm3.39,10.2-2.42-8.38h0L402,109.19Z"/><path class="cls-2" d="M412.9,111.22v-7.45c0-3,2.25-5,5.52-5,3,0,5,1.8,5,4.28v1.3h-1.59v-.94c0-1.8-1.13-3.17-3.52-3.17a3.38,3.38,0,0,0-3.67,3.64V111c0,2.6,1.54,3.69,3.74,3.69s3.45-1.25,3.45-3v-1.12h1.59v1.26c0,2.65-2,4.35-5,4.35C415.24,116.19,412.9,114.56,412.9,111.22Z"/><path class="cls-2" d="M427.24,99H429v16.88h-1.76Z"/><path class="cls-2" d="M437.16,99h2.11l5,16.92h-1.77L441,110.58h-5.66l-1.56,5.33h-1.66Zm3.39,10.2-2.42-8.38h0l-2.46,8.38Z"/><path class="cls-2" d="M447.31,99h5.09c3.27,0,5,1.92,5,4.81,0,2.46-1.23,4.35-3.69,4.73l4.19,7.34H456l-4-7.08h-2.91v7.08h-1.76Zm4.69,8.41c2.39,0,3.62-1.14,3.62-3.48,0-2.06-1-3.48-3.45-3.48h-3.1v7Z"/><path class="cls-2" d="M461.35,99h9.16v1.52H463.1v5.87H469v1.49H463.1v6.48h7.41v1.52h-9.16Z"/><path class="cls-2" d="M472.4,114l1.16-1.2a5.75,5.75,0,0,0,4.38,1.86,2.91,2.91,0,0,0,3.22-2.91c0-1.87-1.3-2.67-2.63-3.31l-2.13-1c-2-.92-3.17-2.34-3.17-4.26,0-2.46,1.87-4.42,4.81-4.42a5.81,5.81,0,0,1,4.66,1.94l-1.11,1.11a4.85,4.85,0,0,0-3.67-1.56A2.6,2.6,0,0,0,475,103c0,1.37.81,2.16,2.42,2.91l2,.95c2.2,1.07,3.53,2.46,3.53,4.64,0,2.79-2.16,4.73-5.19,4.73A6.9,6.9,0,0,1,472.4,114Z"/><path class="cls-2" d="M494.7,108.76,490.2,99H492l3.69,8,3.59-8H501l-4.55,9.75v7.13H494.7Z"/><path class="cls-2" d="M179.13,129h9.16v1.52h-7.41v5.87h5.9v1.49h-5.9v6.48h7.41v1.52h-9.16Z"/><path class="cls-2" d="M191,141.2v-7.45c0-3,2.25-5,5.51-5,3,0,5,1.8,5,4.28v1.3H200v-.94c0-1.8-1.14-3.17-3.53-3.17a3.38,3.38,0,0,0-3.67,3.64V141c0,2.6,1.54,3.69,3.74,3.69s3.46-1.25,3.46-3v-1.12h1.58v1.26c0,2.65-2,4.35-5,4.35S191,144.54,191,141.2Z"/><path class="cls-2" d="M204.93,141.08v-7c0-3.4,2.32-5.34,5.54-5.34s5.54,1.61,5.54,5v7.05c0,3.5-2.37,5.37-5.54,5.37S204.93,144.59,204.93,141.08Zm9.3-.14v-7.17c0-2.2-1.44-3.53-3.83-3.53s-3.7,1.47-3.7,3.84V141a3.43,3.43,0,0,0,3.79,3.64A3.46,3.46,0,0,0,214.23,140.94Z"/><path class="cls-2" d="M218.68,144l1.16-1.2a5.75,5.75,0,0,0,4.38,1.86,2.91,2.91,0,0,0,3.22-2.91c0-1.87-1.3-2.67-2.63-3.31l-2.13-1c-2-.92-3.17-2.34-3.17-4.26,0-2.46,1.87-4.42,4.8-4.42a5.84,5.84,0,0,1,4.67,1.94l-1.12,1.11a4.82,4.82,0,0,0-3.66-1.56,2.6,2.6,0,0,0-2.89,2.74c0,1.37.8,2.16,2.41,2.91l2,1c2.2,1.06,3.52,2.46,3.52,4.64,0,2.79-2.15,4.73-5.18,4.73A6.9,6.9,0,0,1,218.68,144Z"/><path class="cls-2" d="M232.81,129h1.75v16.88h-1.75Z"/><path class="cls-2" d="M237.69,144l1.16-1.2a5.72,5.72,0,0,0,4.38,1.86,2.9,2.9,0,0,0,3.21-2.91c0-1.87-1.3-2.67-2.62-3.31l-2.13-1c-2-.92-3.17-2.34-3.17-4.26,0-2.46,1.86-4.42,4.8-4.42a5.81,5.81,0,0,1,4.66,1.94l-1.11,1.11a4.85,4.85,0,0,0-3.67-1.56,2.6,2.6,0,0,0-2.89,2.74c0,1.37.81,2.16,2.42,2.91l2,1c2.2,1.06,3.53,2.46,3.53,4.64,0,2.79-2.15,4.73-5.18,4.73A6.89,6.89,0,0,1,237.69,144Z"/><path class="cls-2" d="M254.85,130.5H250V129h11.31v1.49H256.6v15.39h-1.75Z"/><path class="cls-2" d="M264.31,129h9.16v1.52h-7.4v5.87H272v1.49h-5.89v6.48h7.4v1.52h-9.16Z"/><path class="cls-2" d="M277.09,129h2.28l4.07,8.55h.05l4-8.55h2.18v16.88h-1.64V131.43h0L284,140h-1.26l-4-8.57h-.07v14.44h-1.57Z"/><path class="cls-2" d="M297.85,129H300l5,16.92h-1.77l-1.54-5.33H296l-1.56,5.33h-1.66Zm3.38,10.2-2.41-8.38h0l-2.46,8.38Z"/><path class="cls-2" d="M306.63,144l1.16-1.2a5.75,5.75,0,0,0,4.38,1.86,2.91,2.91,0,0,0,3.22-2.91c0-1.87-1.3-2.67-2.63-3.31l-2.13-1c-2-.92-3.17-2.34-3.17-4.26,0-2.46,1.87-4.42,4.81-4.42a5.81,5.81,0,0,1,4.66,1.94l-1.11,1.11a4.85,4.85,0,0,0-3.67-1.56,2.6,2.6,0,0,0-2.89,2.74c0,1.37.81,2.16,2.41,2.91l2,1c2.2,1.06,3.52,2.46,3.52,4.64,0,2.79-2.15,4.73-5.18,4.73A6.9,6.9,0,0,1,306.63,144Z"/><path class="cls-2" d="M326.21,129h5.44c3,0,5.09,1.49,5.09,4.64V141c0,3.22-2.11,4.9-5.09,4.9h-5.44Zm5.2,15.39A3.2,3.2,0,0,0,335,141v-7.1a3.17,3.17,0,0,0-3.5-3.39H328v13.9Z"/><path class="cls-2" d="M340.6,129h9.15v1.52h-7.4v5.87h5.89v1.49h-5.89v6.48h7.4v1.52H340.6Z"/><path class="cls-2" d="M358.82,129h2.27l4.07,8.55h0l4-8.55h2.18v16.88h-1.63V131.43h0l-4,8.59h-1.25l-4-8.57h-.07v14.44h-1.56Z"/><path class="cls-2" d="M375.25,141.08v-7c0-3.4,2.32-5.34,5.53-5.34s5.54,1.61,5.54,5v7.05c0,3.5-2.36,5.37-5.54,5.37S375.25,144.59,375.25,141.08Zm9.3-.14v-7.17c0-2.2-1.45-3.53-3.84-3.53s-3.69,1.47-3.69,3.84V141c0,2.22,1.37,3.64,3.79,3.64A3.46,3.46,0,0,0,384.55,140.94Z"/><path class="cls-2" d="M390.16,129h1.77l7.34,13.35h.05V129h1.56v16.88h-1.54L391.77,132h0v13.94h-1.56Z"/><path class="cls-2" d="M408.64,130.5h-4.8V129h11.31v1.49h-4.76v15.39h-1.75Z"/><path class="cls-2" d="M420.45,129h2.11l5,16.92h-1.77l-1.54-5.33h-5.66L417,145.89h-1.65Zm3.39,10.2-2.42-8.38h0l-2.46,8.38Z"/><path class="cls-2" d="M430.61,129h1.77l7.34,13.35h0V129h1.56v16.88h-1.54L432.21,132h0v13.94h-1.56Zm1.89-1.46a2.17,2.17,0,0,1,2-2.16c1.13,0,2.29.88,3.43.88.64,0,.9-.45,1.11-1.09l.85.19c-.19,1.14-.85,2.1-2,2.1s-2.42-.85-3.43-.85c-.74,0-.88.48-1,1.07Z"/><path class="cls-2" d="M449.47,129h2.11l5,16.92H454.8l-1.54-5.33H447.6L446,145.89h-1.66Zm3.38,10.2-2.41-8.38h0L448,139.17Z"/></g></g></svg>