<svg xmlns="http://www.w3.org/2000/svg" viewBox="0 0 4909.19 1399.04"><defs><style>.cls-1{fill:#fff;}</style></defs><g id="Capa_2" data-name="Capa 2"><g id="Capa_1-2" data-name="Capa 1"><path class="cls-1" d="M4786.73,626.43h-79.06v18.7q0,117.6-.05,235.19c0,6.92,2,16.26-12.22,12.12V600.76H4552.34V891.22c-13.48,2.19-13.79,2.19-13.83-9.42-.14-44-.06-88.06-.06-132.09,0-40.67,0-81.33,0-123h-78.07V893.05H3990.71V0h903.72V893h-107.7Zm-297.8-250.81c0,51.84.53,102.23-.41,152.58-.21,11.31,8.67,27-10.2,33.4-.76.25-1,2.94-1,4.49-.07,15.41,0,30.82,0,46.76h60.2c2-24.07,2-24.07,26.07-24.07h120.81c22.3,0,22.28,0,23.88,21.6.07.85,1.08,1.63,1.87,2.77h57.24c0-16.16.06-31.55-.08-46.94,0-2-.71-5.55-1.67-5.77-13-2.89-8-13.18-8.25-20.64-.55-18.75-.18-37.54-.18-56.31V376.1l-18-4V278.89H4506.09V373Zm47-110.82h174.4c-2.85-19.25-5.51-37.16-8.32-56.12-50.73,0-100.12-.27-149.49.53-3.85.06-10,7.11-10.92,11.76C4538.7,235.07,4537.78,249.59,4536,264.8ZM4548,197.06h150.17c-25.55-15.38-47.33-28.73-69.46-41.49-2.94-1.7-8.49-1.84-11.37-.17C4595.24,168.21,4573.49,181.64,4548,197.06Z"/><path class="cls-1" d="M373.91,1061.84c21.6,0,41.45-.54,61.24.38,4.84.22,10.83,4.12,14,8.14q78.93,100.7,157.24,201.89c.57.74,1.71,1,3.79,2.24V1063.18h68.65v329.26c-19.67,0-39.4.67-59-.5-4.52-.27-9.44-6.26-12.88-10.63-54.61-69.62-109-139.4-164.83-210.91v221.15H373.91Z"/><path class="cls-1" d="M4367.5,1227c0-49.34.48-98.68-.31-148-.22-13.74,4.3-17.4,17.4-16.81,48.16,2.18,97.09-1.24,144.37,6.13,85.67,13.36,132.74,69.81,133.06,155,.3,79.56-42.71,139.23-123.34,159.05-35.85,8.82-74.27,7.43-111.57,10-15,1-30.08-.42-45.07.36-11.15.58-14.88-3.12-14.77-14.5C4367.8,1327.83,4367.5,1277.42,4367.5,1227Zm71-106.29v213.65c49,.33,98.82,3.8,129.85-43,26-39.25,27.29-83.26,3.49-123.6C4541.93,1117.17,4490.07,1120,4438.46,1120.72Z"/><path class="cls-1" d="M3048,1396.59c-101.61,0-168.37-66.17-168.26-166.65.11-100.31,71.19-171.59,171.09-171.57,104.12,0,170.6,66.21,170.48,169.75C3221.23,1328.22,3150.85,1396.64,3048,1396.59Zm-96.26-167.83c1.94,13.19,2.75,26.66,6,39.52,11.16,44,45.46,71,90.75,72.6,41.93,1.45,79.18-25.19,92-66.64,8.05-26,9.63-52.68,3.43-79.33-8.11-34.86-26-62.92-61.67-74.11-34.77-10.89-68.25-6.69-96.17,18.8C2960.13,1163.34,2952.91,1194.76,2951.78,1228.76Z"/><path class="cls-1" d="M1509.79,1059.12c50.93,2.85,97.93,2.1,143.77,9,44.82,6.75,67.88,33.87,73.24,76,5.13,40.37-12.45,70.54-46.5,91.76-3.13,1.95-6.19,4-7.25,4.7,31.1,49.72,61.83,98.83,95,151.83-28.86,0-52.75.55-76.57-.53-4.1-.18-8.85-6.72-11.66-11.33q-29.34-48-57.87-96.49c-9.11-15.47-20.88-24.31-41.3-18V1392.4c-22.15,0-42.83.48-63.44-.58-2.68-.14-7-8.23-7.08-12.69-.59-34.34-.33-68.69-.33-103v-217Zm70.66,153.46c28.81,1.75,56.7,4.63,72-25.14,8.59-16.72,9.07-34.66-3.65-49.82-18.55-22.11-43.75-17.26-68.34-16.31Z"/><path class="cls-1" d="M70.13,1063v17.76c0,60.66-.1,121.33,0,182,.13,63.12,60.47,97.57,115.77,65.92,21.75-12.45,29.77-32.92,29.84-56.9.16-63.35.06-126.69.06-190V1063h69.36c.33,4.33,1,8.94,1,13.55.07,61.73.49,123.47-.1,185.2-.43,45.94-10.92,89.24-54.49,113-59.55,32.44-122,32.08-181.75.58C12.29,1355.57,1.51,1317.46.72,1278-.66,1208.82.35,1139.55.41,1070.3c0-2.06.61-4.13,1.1-7.29Z"/><path class="cls-1" d="M1245.85,1062.56H1437.3c-5.5,17.37-10,33.85-16.28,49.63-1.43,3.59-8.89,6.67-13.64,6.77-30,.61-60,.31-91.13.31v74.16h102V1251H1316v84h121c0,17.49.47,32.94-.37,48.31-.18,3.19-5.16,8.74-8,8.76-60.58.51-121.18.39-182.88.39Z"/><path class="cls-1" d="M4310.87,1334.46c0,17.82.45,33.79-.42,49.69-.16,2.94-5.66,8-8.72,8-59.62.3-119.25,0-178.88-.25-.92,0-1.82-1-3.39-1.86V1063.4h190.92c-5.69,18.13-10.35,35-16.61,51.19-1.13,2.93-8.79,4.63-13.47,4.7-29.93.41-59.87.21-90.49.21v75h102.5v57H4189.89v83Z"/><path class="cls-1" d="M1039,1294c30.42-72.9,60.64-144.84,90.3-217,4.67-11.35,10.37-16.64,23.51-15.53,17,1.44,34.28.35,54.25.35-2.52,6.71-4.2,11.94-6.41,17-44.43,100.84-89.09,201.59-133.16,302.59-4.34,10-9.43,13.33-20.21,13.24-38-.33-38.08.11-52.2-34.53q-58.15-142.62-116.26-285.26c-1.39-3.41-2.62-6.87-4.9-12.87,24.78,0,48-.53,71.22.57,3.48.17,7.84,7.52,9.7,12.34,27,69.84,53.53,139.82,80.23,209.76C1036.17,1287.58,1037.5,1290.49,1039,1294Z"/><path class="cls-1" d="M3871,1063.14h190.46c-5.88,18.16-11,35.31-17.32,52-1,2.61-7.83,4.15-12,4.2-30,.35-60,.19-91,.19v74.78h101.72v56.34H3941.4V1334h118.75v57.38H3871Z"/><path class="cls-1" d="M1986.24,1138.18c-11.93-5.22-21.25-11.3-31.37-13.3-20.69-4.09-41.77-7.53-62.79-8.24-12.67-.42-26,7.57-26.73,21.11-.58,10.25,4.12,24.36,11.61,30.72,14.87,12.64,33.48,20.79,50.16,31.4,18,11.47,38.06,21.15,52.9,35.94,41.25,41.13,31.9,108.57-17.46,140.49-48.51,31.38-136.82,26.19-183.93-11.88l24.31-45.27c25,7.46,47.48,15.94,70.73,20.36,11.85,2.25,25.9-.6,37.52-5,22.66-8.51,27.86-32.29,10.27-49.13-11.75-11.25-26.9-19.12-41-27.69-15.56-9.46-32.35-17-47.42-27.14-32.15-21.62-47.66-52.06-41.69-91,6.42-41.89,33.31-66.51,72.82-76.74,37.41-9.68,74.53-5.31,110.49,8.93,8.54,3.38,12.47,8.2,11.86,18C1985.54,1105.15,1986.24,1120.58,1986.24,1138.18Z"/><path class="cls-1" d="M4682.74,1364.56l24.64-45.42c24.76,7.33,47.32,15.21,70.49,20.3,9.88,2.16,22.23,1,31.3-3.24,9.71-4.55,20.13-13,24.38-22.45,5.72-12.64-1.19-25.83-12.7-33.51-16.44-11-34-20.31-51.07-30.32-10.17-6-20.65-11.45-30.52-17.88-35.75-23.26-50.92-56.63-42.56-98.09,8.06-39.93,36.23-62.29,74.57-71.42,35.39-8.43,70.26-4.34,104.27,8.57,10.28,3.89,15.73,9.07,14.79,21.08-1.13,14.36-.26,28.88-.26,45.88-9.78-4.16-17.08-8.62-25-10.38-20.7-4.6-41.53-9.52-62.57-11.4-14.41-1.29-28.05,5.27-32.82,20.71s2.5,27.76,15.11,35.75c17.61,11.15,36.16,20.85,54.42,31,27.1,15,54,31,64.23,62.37,16,49-1.11,96.26-55.4,119.5C4799,1406.56,4727.81,1397.56,4682.74,1364.56Z"/><path class="cls-1" d="M2600.47,1199c22.46-41.57,44.92-82.21,66.33-123.4,5.43-10.43,11.38-14.81,23.37-14,18.07,1.13,36.26.29,57.31.29-4.58,8.49-7.9,14.94-11.49,21.23-32.08,56.3-64.37,112.48-96.07,169a49.8,49.8,0,0,0-5.91,22.64c-.62,34.33-.59,68.68-.09,103,.16,10.63-2.24,15.69-14.19,15.09-18.08-.9-36.23-.23-56.05-.23,0-38.6.67-75.49-.4-112.33a74.5,74.5,0,0,0-8.71-33c-31.57-56.61-64.24-112.61-96.47-168.85-2.6-4.53-4.77-9.31-8.4-16.47,25.3,0,48.6-.47,71.84.48,3.61.14,8,6.16,10.28,10.39,20.86,38,41.34,76.26,61.95,114.41C2595.79,1191,2598,1194.61,2600.47,1199Z"/><path class="cls-1" d="M3284.33,1062.37h191.84c-5.36,17.17-9.81,33.62-16,49.41-1.42,3.65-8.58,7.07-13.17,7.16-30.5.63-61,.33-92.49.33v76.53h101.67v58H3353.77v137.59h-69.44Z"/><path class="cls-1" d="M2272.74,1392.55v-273h-95.23v-56.69h269c-5.23,19.11-10.24,37.45-15.54,56.8h-87.57v20.15c0,78.9-.26,157.8.27,236.7.08,12.63-3.34,17.12-16.28,16.35C2309.9,1391.76,2292.25,1392.55,2272.74,1392.55Z"/><path class="cls-1" d="M3642.54,1062.48c20.42,0,40.18-.12,59.93,0,11.53.1,8.43,9.11,8.44,15.37q.26,113.58.11,227.14v28.83h113.29v57.71H3642.54Z"/><path class="cls-1" d="M771.61,1062.6H840v328.91H771.61Z"/><path class="cls-1" d="M2060.81,1062.75h67.08v328.79h-67.08Z"/><path class="cls-1" d="M4582.79,676.78a40.64,40.64,0,0,1,41.15-40.23c23.05.32,40.86,19.27,40.32,42.9-.52,22.54-19.16,40.67-41.41,40.27C4599.7,719.3,4582.44,700.8,4582.79,676.78Zm41,32.5c16.62-.15,30.17-14.11,30.19-31.1s-13.52-31-30.1-31.18c-16.84-.22-31.93,15.07-31.47,31.89C4592.83,695.15,4607.58,709.42,4623.77,709.28Z"/><path class="cls-1" d="M4520.49,380.14h206.34c-1.25,10.28-6.58,14.33-16.79,14.29-57.95-.21-115.91.15-173.86-.48-6-.07-12-5.4-17.93-8.29Z"/><path class="cls-1" d="M4676.48,558.26h-14.84v-144H4704v21.32h-27.54Z"/><path class="cls-1" d="M4609.88,560.64c-3.21-4.07-9.15-8.09-9.22-12.2-.67-44.33-.42-88.67-.42-134.2H4643v21.37h-27.2V556.45Z"/><path class="cls-1" d="M4539.93,414c5.46-.39,9.08-.84,12.71-.88,9.56-.11,19.13,0,29.83,0v22.34L4555.09,437V556.84c-9.48,3.16-15.26,3.72-15.23-7.39C4540,505,4539.93,460.46,4539.93,414Z"/><path class="cls-1" d="M4579.3,296c4.56,0,9.7-1.1,13.85.46,2.1.79,2.41,6.38,3.52,9.79-15.72,1.33-8.44,15.24-12.09,23.09C4575.44,325.83,4573.87,315.62,4579.3,296Z"/><path class="cls-1" d="M4614.46,330.4l-3.52-33.69c6.77-.37,12.2-1.86,16.67-.42,2.28.74,2.84,6.76,4.18,10.4C4615.38,307.64,4624.85,322.74,4614.46,330.4Z"/><path class="cls-1" d="M4657.36,312.26,4656,329.81c-8.81-4.9-11.81-30.4-4.16-32.82,4.95-1.57,11.37,1.48,17.13,2.46l-9,12.81Z"/></g></g></svg>