<svg xmlns="http://www.w3.org/2000/svg" viewBox="0 0 2455.5 777.83"><defs><style>.cls-1{fill:#fff;}</style></defs><g id="Capa_2" data-name="Capa 2"><g id="Capa_1-2" data-name="Capa 1"><path class="cls-1" d="M0,10.82H640.9c.29,2.92.67,5,.67,7.06,0,100.88.26,201.75-.29,302.62-.24,43.5-7.53,86.15-20.49,127.75-.73,2.35-1.65,4.64-2.6,6.92-.21.5-.89.81-1.67,1.47l-33.78-21.13c6.9-14.12,13.74-28.14,21.46-43.93L531.09,356,513.9,402l-38.2-13.56c4-15.65,7.92-30.79,12.25-47.64l-78.38-18.44c-2.7,16.92-5.17,32.35-7.79,48.74L359,366.36c.73-16.05,1.46-31.89,2.23-48.81H280c.76,16.71,1.47,32.35,2.21,48.69l-42.74,5c-2.48-15.77-4.91-31.15-7.68-48.7l-78.53,18.15c4.35,16.85,8.25,32,12.31,47.76L127.29,402l-17-46L37,391.5l21.42,43.88-35.5,22.44c-4.65-17.89-9.81-34.57-13.2-51.6-3.54-17.85-5.35-36-8-54.07a72.31,72.31,0,0,0-1.74-7ZM455.29,177.3H441.41c-.33-4.6-.62-8.52-1-12.9H423.52c2.91,23.32-5,46.86,7.88,68.56,1.72,2.89,1.41,7.17,1.47,10.81.17,11,.06,22,.06,33.32h22.8v-9.8c0-14.22,0-28.44,0-42.66,0-11.16,8.06-15.8,16.14-20.69,7.49-4.52,12.26,1.08,17.42,4.46,6.69,4.38,9.52,10.73,9.32,19-.39,16.53-.11,33.08-.11,49.63h22.93c0-10.92-.24-21.1.1-31.26.18-5.45-.18-11.74,2.35-16.14,12.12-21,3.87-43.32,6.61-65h-16.7c-.36,4.76-.65,8.67-.95,12.62H499c-.33-4.69-.6-8.62-.89-12.64H485.2c-.44,4.72-.8,8.65-1.2,12.95H470.53c-.53-4.57-1-8.72-1.51-13.05H456C455.74,169.14,455.52,173.07,455.29,177.3ZM205.8,277.21a11.86,11.86,0,0,0,1.15-2.16,15,15,0,0,0,.32-2.75c.79-18.86-3.61-38.51,8.43-55.69a3.34,3.34,0,0,0,.27-1.81c0-16.63,0-33.26,0-50.4H199.73c-.44,4.78-.82,8.94-1.19,13H184.87c-.41-4.64-.78-8.8-1.17-13.06H171.32c-.42,4.8-.8,9-1.18,13.23-3,.15-5.16.38-7.31.33s-4.18-.36-6.16-.55c-2.2-15.1-2.2-15.1-14.42-12.23-.41,4-.84,8.12-1.28,12.29H127.29c-.45-4.61-.85-8.76-1.26-12.88H109.76c0,16.27,0,31.71,0,47.15a10.12,10.12,0,0,0,.26,3.67c2.44,6,5.47,11.79,7.46,17.93,1.2,3.69,1.12,7.86,1.17,11.83.14,10.65,0,21.3,0,32.08h22.35c.17-3.49.43-6.49.44-9.49,0-14.22-.12-28.44.08-42.66.15-11.15,14.72-24.84,23.66-22.56a25.61,25.61,0,0,1,18.92,24.4c0,16.6,0,33.2,0,50.28ZM366.23,140.93c0,6.09.35,11.3-.06,16.46-2,25.17,5.68,51.15-7.26,75.91h56.47c-13.33-30-2.7-61.68-7.68-92.37ZM595,233.31c-13.65-30-3.05-61.65-7.91-92.09h-41.5c0,6.37.39,12.2-.07,18-1.93,24.57,5.57,49.93-7,74.12Zm-501.4-92H51.93c0,4.62.28,8.61,0,12.55-2.14,26.42,5.74,53.62-6.8,79.49h56.29C87.86,203.34,98.42,171.94,93.57,141.27Zm130.84,91.95H281c-14.16-30-3.19-61.74-8.19-92.06H231.87c0,5.7.35,10.9-.06,16C229.82,182.37,237.55,208.38,224.41,233.22ZM79.77,95.25H67c-.42,4.86-.79,9.07-1.17,13.49H52.21c-.42-4.69-.8-8.89-1.22-13.59H37.6v32.94h71.13V95.27H95.41c-.39,4.85-.73,9-1.07,13.17H80.52C80.25,103.65,80,99.69,79.77,95.25ZM423,128.38V95.28H409.72c-.41,4.84-.77,9-1.15,13.51H395c-.39-4.86-.74-9.28-1.08-13.61H381.18c-.49,4.77-.93,9-1.4,13.62H366.4c-.56-4.85-1.07-9.27-1.59-13.73H352.13v33.31ZM544.72,95.31H531.5V128.1h70.77v-33H589.59c-.6,4.86-1.15,9.28-1.67,13.47H574.48c-.45-4.93-.84-9.15-1.24-13.51H560.33c-.38,4.87-.72,9.32-1.06,13.58H545.56C545.27,104.05,545,100.09,544.72,95.31ZM441.31,82.19h71.16V49.5H499.06c-.37,4.84-.69,9-1,13H484.49c-.45-4.77-.83-8.91-1.22-13H470.74c-.42,4.79-.77,8.95-1.13,13h-13.7c-.31-4.54-.59-8.47-.9-13h-13.7Zm-313.81,0h70.79V49.55H184.94l-1.11,12.89H170.14c-.34-4.63-.63-8.57-.94-12.89H156.34c-.27,4.62-.5,8.55-.75,12.86H141.81l-.89-13H127.5ZM456.13,94.89v58.57h41.52V94.89Zm-238.46,33.2H288v-33H275.37c-.51,4.88-1,9.29-1.44,13.68H260.74c-.38-4.85-.73-9.3-1.08-13.67H246.47c-.46,4.9-.88,9.32-1.27,13.43H231.57c-.43-4.87-.8-9-1.18-13.43H217.67Zm-34.09,25.76V95.16H142.15v58.69Zm413.07,91.92h-59v30.62h59ZM223.31,276.52h58.83V245.94H223.31Zm-120.16.33c0-9.43.22-18-.19-26.52-.08-1.73-2.49-4.78-3.87-4.81-18.41-.32-36.82-.21-55.46-.21v31.54ZM416.73,245.8h-59v30.9h59Z"/><path class="cls-1" d="M1676,777.83c-7.92-2.49-15.81-5.09-23.77-7.45-5.82-1.72-8.66-4.88-8-11.42.63-6.11.14-12.34.14-18.13,12.07,4.13,23.7,8.92,35.78,11.89,6.65,1.64,14.21,1,21.1-.07,9.17-1.49,14.76-7.56,15.54-17.13.75-9.3-4-15.57-12.32-18.66-10.13-3.77-20.68-6.41-30.85-10.09-13.42-4.86-25.52-11.62-30.67-26.19-8.06-22.83,3.48-47,26.58-54.59,21.38-7,42.28-3.75,62.37,5.27,2.35,1.06,4.53,4.87,4.83,7.62.71,6.4.23,12.93.23,21.18-3.87-1.81-6.7-3.17-9.56-4.47-14-6.38-28.29-11-44-8.18-8.4,1.5-14.33,5.64-15.39,14.79-1,8.91,2.92,15,11,18.32,6,2.44,12.28,4.21,18.42,6.32,6.43,2.21,13,4.06,19.23,6.79,19.45,8.55,28,21.72,27.06,41.1-.92,19.94-11.72,33.82-31.33,40.36-2.27.76-4.43,1.82-6.65,2.74Z"/><path class="cls-1" d="M1389.57,777.83c-3.49-1.12-7-2.32-10.46-3.36-36.68-10.82-57.63-42.39-54.57-82.28,2.69-35.09,30.3-63.49,66.07-68.66,17-2.46,33.2-.24,49.21,5.57,5.54,2,7.76,5.06,7.29,10.95-.48,6.05-.11,12.16-.11,19.24-32.18-15.55-62.85-21.58-87.08,10.9-14,18.8-11.54,47.18,3.35,64.8,18.24,21.58,44.45,23.37,85.73,5.37,0,8,.41,15.6-.23,23.14-.2,2.32-2.8,5.44-5.06,6.4-7.31,3.09-15,5.35-22.52,7.93Z"/><path class="cls-1" d="M27.56,467.82,74,439c-6.6-13.5-13.1-26.77-20.29-41.47l49.72-24.24c5.74,15.37,11,29.44,16.24,43.48L180,395.39c-3.63-14.24-7.32-28.74-11.45-45l53.11-12.64c2.59,16.12,5,30.9,7.4,46.11l64.9-7.5v-46h54.39c-.7,15.24-1.39,30.17-2.11,45.75l66,7.73c2.35-14.85,4.64-29.41,7.24-45.89l53.27,12.18c-4,15.53-7.69,30-11.54,45.09l60.42,21.44c5.21-14,10.39-28,16.1-43.42l49.76,24.14-20.2,41.44,47.87,29.8C605,490.08,596,511.41,585,531.61c-42.7,78.25-103.9,139.78-176.58,190.25-26.14,18.15-53.93,34-81.22,50.42-3,1.82-8.62,2.46-11.52.88C232.72,728,158.17,672.4,99.52,597.43A471.09,471.09,0,0,1,29,472.72C28.54,471.58,28.29,470.37,27.56,467.82ZM471.08,628.54c0-5.47.09-8.19,0-10.9q-2.91-75.52-5.88-151.06c-.27-7-25.79-30-32.57-29.46-.92.08-1.8.61-2.71.64-9.81.4-19.7,1.69-29.42.9-25.6-2.1-50.67-1.69-74.73,9a14.4,14.4,0,0,1-10.3,0c-15.94-6.72-32.44-10.28-49.7-9.81-14.21.38-29,4.24-42.45,1.31-15.94-3.49-25.69,2.77-35.77,12.16a33.74,33.74,0,0,1-4.37,3.44c-5,3.3-7.07,7.63-7.29,13.86-1.33,38.31-3.26,76.6-4.65,114.9-.51,14.11-.08,28.26-.08,44,14.62.4,30,1.13,45.37,1.13,16.4,0,32.82-1.26,49.2-.86,15.22.37,29.42,3.79,43,12.32,6,3.77,17,1.27,25.23-.61,9.11-2.08,17.45-9,26.45-9.76,20.9-1.68,42-.95,63-1.08C439.09,628.47,454.76,628.54,471.08,628.54Z"/><path class="cls-1" d="M951.44,144.65V11.56H994.3v203.3c-13.16,0-26.36.4-39.49-.33-2.77-.15-5.8-4.1-7.88-6.91Q903.75,149.5,860.82,91.2c-2-2.69-4-5.33-7.26-9.58V214.2h-43.4V10.84c13.37,0,26.59-.4,39.74.33,2.76.15,5.77,4.11,7.85,6.91Q902,77.69,946.06,137.48C947.32,139.19,948.6,140.87,951.44,144.65Z"/><path class="cls-1" d="M1957.41,214.4h-42.77c0-6.26,0-12.06,0-17.85-.07-22,.11-43.94-.32-65.9-.29-15.06-8.77-22.12-23.61-19.72-5.35.86-10.45,3.52-15.54,5.66s-6.86,6-6.78,11.76c.34,25.05.14,50.12.14,75.18v10.73h-43.44v-10c0-24.13.18-48.27-.13-72.39-.22-16.89-10.77-24.58-27.24-20.52-15.17,3.74-19,8.66-19,24.2v78.66h-42.41V76.6h41.55c.32,3.34.62,6.56,1,10.61,28.7-18.08,56.22-22,80.37,1.83,14.59-5.42,27.88-12.54,42-15.16,30.92-5.74,54.13,11.65,55.81,42.66C1958.77,148.86,1957.41,181.34,1957.41,214.4Z"/><path class="cls-1" d="M810.65,293.11H855c0,3.84,0,7.42,0,11q.15,52.42.34,104.86a85.72,85.72,0,0,0,.71,11.1c4.49,33,37.45,49.49,66.91,33.36,15.46-8.47,19.88-23.39,20.25-39.3.86-36.48.79-73,1.08-109.48,0-3.63,0-7.27,0-11.55h42.08c.5.86,1.08,1.38,1.07,1.9-.42,43.58.84,87.27-1.83,130.72-2.66,43.28-31.24,69.79-74.74,73a139.33,139.33,0,0,1-38.73-2.38c-35.89-7.65-58.41-32.12-60.43-69.27-2.39-43.8-1.54-87.77-2.05-131.67C809.64,294.86,810.11,294.31,810.65,293.11Z"/><path class="cls-1" d="M2027.18.18V80.43c8.47-2.34,16.2-5.34,24.2-6.56,37.88-5.8,71,20.33,74.84,58.57,5.79,57.67-40.06,97.34-96.13,82.36a65.27,65.27,0,0,0-31.79-.72c-4.45,1-9,1.47-14.23,2.29V.18Zm20.58,109-8.56,1.55c-8.76,1.58-13,5.74-12.27,15.67a267.92,267.92,0,0,1,0,40.76c-.82,10.42,4,13.77,12.88,14.74,2.15.24,4.29.63,6.45.8,20.84,1.59,36.33-13.51,37.09-36.11C2084.09,124.28,2070.6,109.06,2047.76,109.14Z"/><path class="cls-1" d="M1418.67,0h42.6V85.15c12.53-4.12,24.08-9.5,36.2-11.58,28.75-5,52.2,11.83,54,40.75,2,32.92.46,66.05.46,99.84h-42c-.18-2.95-.52-6.21-.54-9.47-.11-24.12.2-48.26-.34-72.37-.42-18.68-11.09-25.85-29.13-20.47-3,.88-5.74,2.3-8.61,3.46-7,2.82-10.08,7.3-9.9,15.53.6,27.49.23,55,.23,83.28h-43Z"/><path class="cls-1" d="M1206.33,679.66c-8.88,28.56-18.17,57-26.38,85.75-2.44,8.55-6.19,11.57-14.72,10.49-5.47-.69-11.1-.13-17.24-.13-15.45-50.13-30.79-99.89-46.55-151,9.17,0,16.92-.6,24.46.35,2.46.31,5.5,4.36,6.39,7.28,9.63,31.31,18.88,62.73,28.24,94.12.78,2.64,1.61,5.27,3,10,4.45-14.43,8.3-26.93,12.17-39.43,6.48-21,13.27-41.84,19.28-62.93,2-7.17,5.1-9.91,12.82-9.72,7.25.17,10.84,1.81,13,9.37,9,30.85,18.76,61.47,28.27,92.17.89,2.86,2,5.66,3.41,9.68,10.48-34.75,20.79-68,30.42-101.53,2.09-7.27,5.08-10.42,12.74-9.53,5.42.63,11,.12,17.69.12-15.89,51.28-31.31,101.07-46.63,150.54-28.12,2.35-28.15,2.36-36.1-23.28q-11.22-36.15-22.33-72.35Z"/><path class="cls-1" d="M1166.53,145.35c0,41.71-33.35,72.82-77.67,72.54-44-.28-76.82-31.28-76.82-72.54,0-41.46,33.8-73.07,77.76-72.71S1166.58,104.2,1166.53,145.35Zm-77,35c19.1-.09,34.34-15.88,34.1-35.35s-15.79-35-34.87-34.66c-18.89.33-33.35,15.44-33.44,35C1055.2,165,1070.24,180.44,1089.51,180.35Z"/><path class="cls-1" d="M1708.17,214.37H1667c-.33-3.48-.64-6.79-1.1-11.67-3,1.85-5.39,3.27-7.72,4.81-14.73,9.75-30.88,12.43-48,9-20.49-4.12-33.91-18.47-35.24-43.12-1.74-32-.43-64.14-.43-96.86H1617c.15,3.23.42,6.53.43,9.84,0,22.87,0,45.75,0,68.63,0,10.24,1.08,20.15,12.51,24.5,9.15,3.48,27.4-1.5,33.29-9.36,1.62-2.17,1.89-5.71,1.91-8.63.14-24.74.08-49.47.08-74.2V76.58h42.88Z"/><path class="cls-1" d="M2455.37,182.2c0,8.89.42,17.84-.28,26.71-.18,2.31-3.41,5.48-5.91,6.35-13.5,4.67-27.59,1.89-45.08-8.16-17.79,10.56-36.88,13.88-57,8-18.59-5.4-29.06-18.86-29.61-37-.6-19.57,8.61-35.54,27.43-40.38,16.14-4.15,33.36-4.12,51.2-6.06,2.81-9.48-2.55-18.18-15.33-20.67-17.6-3.42-33.68,1.86-51.17,9.65,0-12.08-.27-23.3.26-34.48.08-1.81,3.39-4.15,5.68-5.06,22.83-9.07,46.29-11.23,70.07-4.61,22.39,6.23,33.91,21.32,34.6,44.85.44,15.16.14,30.33.17,45.5C2440.41,180.84,2441.22,181.72,2455.37,182.2Zm-74.93-23.47c-1.7.26-6.78-.3-10,1.87-4.12,2.75-8.52,7.31-9.59,11.85-1.54,6.58,3.85,11.74,10,12.14,7.43.48,15.06-1.41,22.53-2.68,1.33-.23,2.9-2.3,3.38-3.83C2400.94,164.83,2396.68,158.94,2380.44,158.73Z"/><path class="cls-1" d="M1148.36,495.6h-43.08c0-3.64,0-6.92,0-10.2,0-23.49.14-47,0-70.48-.16-19.8-10.85-27.48-29.64-21.66-15.78,4.88-17.81,7.62-17.81,24v78.2h-43V357.62H1056c.4,3.56.79,7.06,1.15,10.25,9.55-4,18.5-9.17,28.14-11.69,34.31-9,60.83,9,62.7,44.08C1149.68,431.63,1148.36,463.16,1148.36,495.6Z"/><path class="cls-1" d="M1528.11,438h-92.79c3,12.3,9.89,19.76,20.43,24,15.23,6.11,30.43,4.05,45.31-1.38,6.62-2.42,12.93-5.69,20.84-9.23,0,11.45.28,22.33-.26,33.17-.1,1.84-3.38,4.21-5.68,5.16-28,11.56-56.43,13.81-84.79,1.69-30.22-12.93-45.65-44.51-39.39-79,5.64-31.19,32.54-55.44,64.14-57.86C1504.83,350.76,1537,387.29,1528.11,438ZM1436,409.8h52.88c-2.84-14.43-12-22.18-25.72-22.26C1449,387.46,1439.23,395.18,1436,409.8Z"/><path class="cls-1" d="M2001.91,558.09c9-19.2,16-37.17,25.63-53.52,9.88-16.67,9.2-30.79.37-47.93-16.4-31.82-30.23-65-46-99.5,15.33,0,29.34-.26,43.33.31,1.86.08,4.13,4.14,5.23,6.77,8.51,20.22,16.77,40.55,25.14,60.84,1.16,2.81,2.49,5.54,4.28,9.5,10.14-23.49,20.09-45.63,29.19-68.1,3.06-7.56,7.1-10.28,15.17-9.68,10.08.76,20.26.19,31.5.19-1.14,3.43-1.69,5.72-2.64,7.83q-41.8,93-83.58,186.13c-2.34,5.24-5.15,7.53-11.08,7.29C2027.05,557.77,2015.62,558.09,2001.91,558.09Z"/><path class="cls-1" d="M1773.61,400.26c-13.92-4.06-27-8.74-40.56-11.48-7.28-1.48-15.32-.19-22.81,1.05-2.37.39-5.62,4.64-5.66,7.18s3,6.43,5.53,7.27c7.58,2.54,15.61,3.71,23.39,5.73s15.7,3.79,23.1,6.79c29.8,12.09,34.72,49.07,9.2,68.88-15.27,11.85-33.4,14.95-51.92,13.14-14.34-1.39-28.47-5.21-42.55-8.56-2.54-.6-6.08-4.07-6.22-6.39-.67-10.7-.3-21.45-.3-31.63,15.4,4.42,30,9,44.89,12.66,5.54,1.35,12,1.58,17.39,0,4.13-1.22,7.18-6.07,10.72-9.31-3.26-3.13-6-7.82-9.88-9.08-9.36-3.07-19.28-4.38-28.89-6.73a92.77,92.77,0,0,1-14.06-4.69c-14.13-6-23.85-15.66-24.7-31.8-.87-16.46,5.56-29.63,19.58-38.54,18-11.48,38.08-11.62,58.42-9.58a16.26,16.26,0,0,1,1.82.36C1783,364.74,1773.85,359.21,1773.61,400.26Z"/><path class="cls-1" d="M951.72,775.74c-7.49,0-14.62.63-21.54-.29-3-.4-6.21-3.52-8.25-6.22-23-30.36-45.73-60.88-68.56-91.35-1.81-2.42-3.68-4.81-7.15-9.33V775.23H820.63V625.48C834.2,623.63,845.4,623,855,637.09c20.19,29.64,42.62,57.77,64.15,86.5,1.79,2.4,3.68,4.73,6.87,8.8V625.45h25.73Z"/><path class="cls-1" d="M1891.09,393.29h-22.62c0-11.15-.22-21.79.27-32.4.07-1.39,3.72-3.5,5.87-3.73,5.12-.56,10.34-.18,16.48-.18,0-10.14.29-19.06-.11-28-.25-5.64,1.5-8.39,7.36-9.19,11.6-1.59,23.11-3.76,35.86-5.9v43c10.26,0,19.45.36,28.6-.12,6.65-.36,8.65,2.18,8.34,8.54-.44,8.87-.11,17.78-.11,27.5h-35.71c0,19.81-.68,38.81.3,57.73.44,8.4,7.23,12.83,16,11.72,6-.76,11.92-2.44,19.3-4,0,10.38.29,20.42-.25,30.42-.1,1.92-3.1,4.45-5.31,5.35-14.82,6-30,7.16-45.32,1.9-17.9-6.15-26.82-19.6-28-37.71-1.14-17.55-.72-35.21-1-52.81C1891,401.83,1891.09,398.18,1891.09,393.29Z"/><path class="cls-1" d="M1396.39,111.89H1362c0,19.73-.74,38.77.32,57.71.49,8.92,8.63,13.23,18,11.6,5.42-.95,10.68-2.76,16.84-4.4,0,10.31.33,20.16-.25,30-.13,2.22-3,5.31-5.27,6.22-14.87,5.85-30.19,7-45.4,1.61-16.13-5.68-25.64-17.64-27-34.44-1.52-18.75-1.32-37.64-1.83-56.47-.1-3.62,0-7.24,0-11.79h-21.79V76.31h21.79c0-9.26.44-17.79-.13-26.25-.49-7.42,1.12-11.13,9.64-11.78,11-.84,21.81-3.55,34-5.69v43.2h35.52Z"/><path class="cls-1" d="M1314.36,444.66c10.59-27.25,20.8-52.4,30-77.91,2.82-7.8,6.55-10.55,14.68-10,10,.72,20.17.17,31.33.17-1.18,3.77-1.73,6.08-2.61,8.25-16.72,41.22-33.61,82.38-50.1,123.69-2.23,5.58-5.13,7.51-10.93,7.17-11.07-.64-24.64,3.06-32.57-2.1-7.53-4.88-9.29-18.74-13.38-28.75-14.47-35.43-28.85-70.89-44-108,15.19,0,29.27-.25,43.32.32,1.76.07,3.94,4.27,4.92,6.93,8.68,23.46,17.13,47,25.65,70.54C1311.68,437.56,1312.67,440.14,1314.36,444.66Z"/><path class="cls-1" d="M1622.14,775.27c-27.67,1.85-27.67,1.85-36.91-21.81-1.12-2.88-2.58-5.68-3.31-8.65-1.16-4.74-3.81-6.23-8.65-6.15-17.35.26-34.7-.13-52,.34-2.75.07-6,2.82-7.94,5.23s-2.67,6.18-3.93,9.34c-9.3,23.38-9.3,23.38-35.57,21.76a55.25,55.25,0,0,1,1.82-6.69c18.73-45.74,37.59-91.42,56.18-137.22,2.09-5.14,4.93-6.84,10.36-6.89,18.63-.16,18.59-.34,25.69,17.07q25.37,62.22,50.79,124.41C1619.77,768.82,1620.78,771.68,1622.14,775.27ZM1547.33,655l-23,61.17h46.19C1562.9,696.13,1555.63,676.93,1547.33,655Z"/><path class="cls-1" d="M1078.68,751.47V775H987.13c-.16-2.83-.48-5.83-.49-8.83,0-43.94.16-87.88-.19-131.81-.06-7.82,2.39-10,10-9.85,23.54.43,47.1.13,70.66.18,3,0,6,.35,9.45.56v23h-62.35v36.91h53.57v23.28h-53.42v43Z"/><path class="cls-1" d="M2134,775.5h-91v-150h88.94v23h-62.57V685h54.08v23.85h-54.11v42.52H2134Z"/><path class="cls-1" d="M1552.74,495.38c-.19-3-.52-5.75-.52-8.47,0-40.24.15-80.47-.18-120.71-.06-7.36,2.08-9.77,9.44-9.38,10.73.57,21.52.15,33.1.15v18.5c14.13-15.88,29.64-22.21,49.19-18.74v38.06c-10.81,1.79-21.63,2.42-31.67,5.54-11,3.42-17.47,10.67-16.65,24.18,1.24,20.35.34,40.84.3,61.27,0,3-.26,6-.42,9.6Z"/><path class="cls-1" d="M1276.32,115.47c-15.87-1.85-29.73-.56-41.89,8.74-4.72,3.62-7.13,7.57-7,14,.42,25,.17,50.08.17,75.92h-42.34V76.37h40.58c.47,5.21.91,10.22,1.52,17,11-12.67,23.55-18.8,38.9-19.29,7.32-.24,10.78,1.64,10.24,9.8C1275.81,94,1276.32,104.2,1276.32,115.47Z"/><path class="cls-1" d="M2145,76.36h40.64c.48,5.2.93,10.2,1.56,17,11.3-13.09,24.22-19.12,40-19.27,6.7-.07,9.41,1.94,9,9-.56,10.44-.14,20.93-.14,29.82-11.94,2.25-23.3,3.2-33.8,6.71-10.14,3.39-15.93,10.5-15.26,23.18,1.22,23.42.34,46.94.34,71.25H2145Z"/><path class="cls-1" d="M2257.41,214.35V76.45h42.24v137.9Z"/><path class="cls-1" d="M1888,624.65v23.78h-49.06V775.1H1812V648.68c-14.16,0-27.11-.39-40,.15-7.61.32-10.33-2-10-9.83.72-15.83-1.82-14.3,14.57-14.33,33.13-.07,66.25,0,99.38,0Z"/><path class="cls-1" d="M1847.14,357.81V495.16h-42V357.81Z"/><path class="cls-1" d="M1217.75,357V495.3h-42.36c-.22-3.2-.6-6.18-.6-9.16,0-39.55.23-79.11-.23-118.66-.11-8.77,2.69-11.21,11.06-10.68C1196,357.47,1206.52,357,1217.75,357Z"/><path class="cls-1" d="M1946.36,625.44V751.69h67.51v23.57h-93.59V625.44Z"/><path class="cls-1" d="M2303.42,32.52a24.78,24.78,0,0,1-24.83,24.55c-13.49,0-25-11.2-25.11-24.53C2253.32,19,2265.4,7.15,2279,7.44A24.91,24.91,0,0,1,2303.42,32.52Z"/><path class="cls-1" d="M1826.17,338.15c-13.94,0-25.09-10.81-25.13-24.45A24.75,24.75,0,0,1,1826,289c14-.06,24.9,10.64,24.94,24.47S1840.2,338.12,1826.17,338.15Z"/><path class="cls-1" d="M1171.66,313.21c.15-13.82,11.15-24.39,25.17-24.19,13.73.2,24.91,11.53,24.66,25-.25,13.61-11.54,24.31-25.46,24.13A24.19,24.19,0,0,1,1171.66,313.21Z"/><path class="cls-1" d="M394.45,185.78h-14V155h14Z"/><path class="cls-1" d="M574.2,154.69v31.05h-14V154.69Z"/><path class="cls-1" d="M65.89,154.72h15.2c0,9.31.38,18.15-.32,26.89-.14,1.78-4.39,4.56-6.68,4.5-2.77-.07-7.67-2.47-7.83-4.22C65.45,173.15,65.89,164.29,65.89,154.72Z"/><path class="cls-1" d="M259.8,155v30.82H246.12V155Z"/><path class="cls-1" d="M470.55,109.3h12.87V140H470.55Z"/><path class="cls-1" d="M169.94,109.65v30.5H156.06v-30.5Z"/><path class="cls-1" d="M318.28,630c-14.62-14.19-35.9-16.83-57.43-17.21-22-.38-44,.62-65.94,1.42-7.93.29-10.55-1.79-10.11-10.46,2.2-42.63,3.58-85.29,5.21-127.94.46-12,15.19-23.54,27.27-22a93.75,93.75,0,0,0,20.3-.12c27.11-2.55,53.85-3.14,78.82,10.56a10.21,10.21,0,0,0,8.35,0c25-13.68,51.72-13.15,78.82-10.57,5.83.56,11.79,1.24,17.57.65,17.2-1.75,29.49,8,30.2,25.26,1.72,42,3.05,84.07,4.87,126.1.3,6.73-2.12,8.7-8.39,8.47-13.61-.51-27.25-1.06-40.86-.8-17.59.33-35.4,0-52.67,2.72C342.59,617.93,331.65,624.62,318.28,630ZM225.79,470.64a43.54,43.54,0,0,0-.82,4.93c-.91,34.58-1.68,69.16-2.78,103.73-.19,6.11,2.94,7.22,7.85,7.6,27.24,2.12,54.47,4.35,82.25,6.59,0-29.49.11-61.26-.09-93,0-7.53,1.69-18.65-2.36-21.82-7.74-6.09-19-7.79-28.9-11-2.26-.74-4.93-.44-7.39-.28C257.84,468.38,242.15,469.5,225.79,470.64Zm192.62,1.29c-11.68-1.63-19.91-3.14-28.2-3.86-18.26-1.57-36.42-2.29-53.65,6.26-5.48,2.72-7.63,5.8-7.57,12,.32,31.84.15,63.68.15,95.53v13.69c10.57-2,20.12-4.66,29.83-5.56,17.54-1.63,35.17-2.29,52.78-3.2,5.52-.28,7.44-2.77,7.15-8.24-.48-8.95-.45-17.93-.47-26.89C418.38,525.14,418.41,498.61,418.41,471.93Z"/></g></g></svg>