<svg xmlns="http://www.w3.org/2000/svg" viewBox="0 0 892.09 294.23"><defs><style>.cls-1{fill:#fff;}</style></defs><g id="Capa_2" data-name="Capa 2"><g id="Capa_1-2" data-name="Capa 1"><path class="cls-1" d="M145,208.31c-9.45-10.73-13.35-24.11-17.53-37.41-6.81,4.57-9.12,12.09-6.1,19.18,3.51,8.21,7,16.42,11,25.61-4.69-1.89-8.49-3.38-12.26-4.95-19.57-8.11-39.39-15.33-60.56-18.12-17.26-2.27-34.2-1.6-51.65,6-2.3-10.49-5.21-20.37-6.55-30.46C-7.93,98.5,31.63,33.41,97.77,8.94c83.8-31,178.05,21.81,195.34,109.3a158.15,158.15,0,0,1-.39,62.52c-2.82,14-11.85,23.75-23.65,30.79-6.89,4.11-14.58,6.89-22.61,10.6l9.9-29c-5.8-.38-10.32-.9-14.71,3.65-5.44,5.63-13.33,6.3-20.63,4.5a94.23,94.23,0,0,1-20.42-7.63c-15.07-7.77-29.6-16.6-44.76-24.16-5.56-2.78-12.29-3.21-19.54-5A177.63,177.63,0,0,0,145,208.31ZM236.43,193c-14.3-32.43-13.64-64.31,2.52-96-25.87-14.16-52-16.16-79.35-6.14-7.42,2.73-12.44,7-14.87,14.62a8.57,8.57,0,0,1-5.2,5c-10.26,2.43-15,9.4-17.54,18.93-3.38,12.77-2.12,24.86,4.4,37.72-.51-7.8.15-8.63,6.8-10,.65-.13,1.32-.17,2-.26,12.13-1.5,23.09,2.5,33.56,7.74,8.55,4.28,16.66,9.42,25.59,14.54-7.51-21.54-6.74-42.54,1.74-64.08l-22-7.81.33-1.16,27.29,7c-6,18.58-6.19,36-.45,53.28a10.32,10.32,0,0,0,4.94,5.45A93,93,0,0,1,233.92,191,26,26,0,0,0,236.43,193ZM83.43,56.34a41.92,41.92,0,0,0-1.6,4.79c-.66,3.76-1.24,7.55-1.77,11.33-.78,5.52-4,8.58-9.39,9.48-3.61.61-7.23,1.13-10.82,1.85A10.66,10.66,0,0,0,57.1,85.3c.93.69,1.77,1.76,2.81,2C63,88,66.12,88.43,69.23,89c7,1.26,9.15,3.31,10,10.33,1,8.09,1.63,16.22,2.58,24.32.14,1.2,1.17,2.3,1.79,3.45.66-1.13,1.75-2.21,1.89-3.41,1-8.09,1.71-16.22,2.55-24.33.67-6.53,3-9.11,9.48-10.3,3.43-.63,6.9-1.07,10.31-1.82.87-.19,1.55-1.24,2.32-1.9-.74-.5-1.41-1.28-2.22-1.46-2.11-.47-4.27-.69-6.41-1C90,81.27,88.17,79.46,86.32,68.06c-.4-2.47-.59-5-1-7.42C85.1,59.66,84.49,58.76,83.43,56.34ZM199.71,70.61c-6.89-5.71-24.88-6.37-29-1.47l27,10.48C198.24,77.12,199,73.92,199.71,70.61Z"/><path class="cls-1" d="M485.18,77.43h37.58v5.24c0,25.16-.15,50.32.14,75.47a37,37,0,0,0,3,14.43c5,11.09,15.69,16.31,27.47,14.43,9.95-1.6,19.06-11,20.8-21.71a62.43,62.43,0,0,0,.76-9.94c.06-23.33,0-46.65,0-70V77.56H612.5c.09,1.74.25,3.51.25,5.28,0,25.33.12,50.65,0,76-.18,35.79-26.41,62-62.2,62.47-28.2.35-51.34-13.4-60.77-37.06a63.37,63.37,0,0,1-4.61-21.78c-.53-27.48-.22-55-.21-82.46C484.94,79.32,485.06,78.66,485.18,77.43Z"/><path class="cls-1" d="M815.11,175v42.11H777.52V77.87c.45-.24.74-.52,1-.52,23.48.17,47-.66,70.41.84,26,1.66,43.51,23,43.14,49.7a47.36,47.36,0,0,1-44.74,47C836.93,175.52,826.43,175,815.11,175Zm.44-63.62v30c7.87,0,15.34.16,22.81,0,8.72-.25,15.5-6.48,15.86-14.2.37-8.07-5.9-15.11-14.83-15.68C831.63,111,823.81,111.34,815.55,111.34Z"/><path class="cls-1" d="M356.36,77.83c.63-.26.93-.5,1.22-.5,23.31.17,46.67-.53,69.91.79,25.44,1.44,43.59,22.62,43.52,48.46-.08,25.6-18.66,46.18-44,48.21-8.95.71-18,.37-27,.5-1.79,0-3.59,0-5.87,0v41.6H356.36Zm38,33.52v30c8,0,15.66.21,23.29-.06,8.61-.31,15.3-6.87,15.45-14.64s-6.23-14.68-14.87-15.2C410.43,111,402.6,111.35,394.33,111.35Z"/><path class="cls-1" d="M764.52,193.56c-9.81,11.53-21.22,19.62-35.34,24.05C692.76,229,653,214.43,635.4,182.16c-25-45.77,3.78-97.14,51.42-107,25.63-5.34,48.93.13,68.93,17.73,2.75,2.42,6,4.3,9.31,6.66l-24.25,25.38c-3.72-3.19-7.16-6.51-11-9.32-18.46-13.64-45.11-10-58,7.77-10.62,14.6-10.21,35.5,1,49.36,11.73,14.55,32.43,19.27,50.31,10.74,6.93-3.31,13.1-8.21,20.39-12.88Z"/><path class="cls-1" d="M225.69,272.2c-9.41,6-17.9,10.19-27.21,12.74-15.34,4.2-29.82,2-44.11-4.72-24.87-11.69-46.37-28-66.05-46.88-12.76-12.27-26-23.87-42.14-31.66-.36-.18-.56-.68-.49-2.34,9.14,1.76,18.38,3.17,27.42,5.34,15.25,3.67,28.38,12,41.81,19.7,19.59,11.28,39.18,22.62,59.36,32.75,14.28,7.16,29.85,11.25,45.85,13.18C221.57,270.48,222.94,271.24,225.69,272.2Z"/><path class="cls-1" d="M13.94,207.59c10.39-3.32,20-1.52,29.32,2.82,14.87,7,26.83,17.85,38.47,29.12,15.69,15.21,31.75,30,50.79,41.06,5.46,3.17,11.25,5.78,16.79,8.81,1.37.76,2.38,2.18,3.56,3.29-1.6.5-3.19,1.39-4.81,1.45-29.26,1-56-7.12-80.33-23-22.45-14.64-40.85-33.09-52.22-57.81-.55-1.21-1-2.46-1.45-3.72A9.51,9.51,0,0,1,13.94,207.59Z"/><path class="cls-1" d="M128,222.2c6.65,1.77,13.27,3.72,20,5.27,29.4,6.81,59.1,10.47,89.13,5.45,10.56-1.76,20.72-5.85,31.09-8.77,1.37-.38,2.94-.09,4.41-.12-.2,1.44.09,3.26-.69,4.24-5.78,7.31-11.25,15-17.81,21.51-9.06,9-21,10.89-33.29,10.61-20.51-.45-39-8-57-16.86-11.46-5.69-22.54-12.15-33.78-18.3a22.71,22.71,0,0,1-2.61-1.92Z"/></g></g></svg>